# MagicaVoxel @ ephtracy

# material
mtllib creeper.mtl
usemtl palette

# normals
vn -1 0 0
vn 1 0 0
vn 0 0 1
vn 0 0 -1
vn 0 -1 0
vn 0 1 0

# texcoords
vt 0.0332031 0.5
vt 0.0917969 0.5
vt 0.650391 0.5
vt 0.908203 0.5
vt 0.958984 0.5
vt 0.994141 0.5

# verts and faces
v -2.5 2 3
v -2.5 2 -3
v -2.5 6 2
v -2.5 6 -1
v -2.5 7 -1
v -2.5 7 -2
v -2.5 8 2
v -2.5 8 -2
v -2.5 9 2
v -2.5 9 1
v -2.5 9 -1
v -2.5 9 -2
v -2.5 10 2
v -2.5 10 1
v -2.5 10 -1
v -2.5 10 -2
v -2.5 13 3
v -2.5 13 -3
f -16/4/1 -17/4/1 -18/4/1
f -15/4/1 -17/4/1 -16/4/1
f -14/5/1 -15/5/1 -16/5/1
f -14/4/1 -17/4/1 -15/4/1
f -13/4/1 -17/4/1 -14/4/1
f -12/4/1 -16/4/1 -18/4/1
f -12/5/1 -14/5/1 -16/5/1
f -12/5/1 -13/5/1 -14/5/1
f -11/4/1 -17/4/1 -13/4/1
f -11/5/1 -13/5/1 -12/5/1
f -10/4/1 -12/4/1 -18/4/1
f -10/4/1 -11/4/1 -12/4/1
f -9/4/1 -11/4/1 -10/4/1
f -8/4/1 -11/4/1 -9/4/1
f -7/4/1 -17/4/1 -11/4/1
f -7/4/1 -11/4/1 -8/4/1
f -6/4/1 -10/4/1 -18/4/1
f -6/6/1 -9/6/1 -10/6/1
f -5/4/1 -8/4/1 -9/4/1
f -5/6/1 -9/6/1 -6/6/1
f -4/6/1 -7/6/1 -8/6/1
f -4/4/1 -8/4/1 -5/4/1
f -3/4/1 -17/4/1 -7/4/1
f -3/6/1 -7/6/1 -4/6/1
f -2/4/1 -6/4/1 -18/4/1
f -2/4/1 -4/4/1 -5/4/1
f -2/4/1 -3/4/1 -4/4/1
f -2/4/1 -5/4/1 -6/4/1
f -1/4/1 -17/4/1 -3/4/1
f -1/4/1 -3/4/1 -2/4/1
v -1.5 1 3
v -1.5 1 1
v -1.5 1 -1
v -1.5 1 -3
v -1.5 2 3
v -1.5 2 1
v -1.5 2 -1
v -1.5 2 -3
v -1.5 13 2
v -1.5 13 -2
v -1.5 14 2
v -1.5 14 -2
f -8/4/1 -11/4/1 -12/4/1
f -7/4/1 -11/4/1 -8/4/1
f -6/4/1 -9/4/1 -10/4/1
f -5/4/1 -9/4/1 -6/4/1
f -2/4/1 -3/4/1 -4/4/1
f -1/4/1 -3/4/1 -2/4/1
v -0.5 0 2
v -0.5 0 1
v -0.5 0 -1
v -0.5 0 -2
v -0.5 1 2
v -0.5 1 1
v -0.5 1 -1
v -0.5 1 -2
v -0.5 4 4
v -0.5 4 3
v -0.5 4 -3
v -0.5 4 -4
v -0.5 7 4
v -0.5 7 3
v -0.5 7 -3
v -0.5 7 -4
f -12/6/1 -15/6/1 -16/6/1
f -11/6/1 -15/6/1 -12/6/1
f -10/6/1 -13/6/1 -14/6/1
f -9/6/1 -13/6/1 -10/6/1
f -4/4/1 -7/4/1 -8/4/1
f -3/4/1 -7/4/1 -4/4/1
f -2/4/1 -5/4/1 -6/4/1
f -1/4/1 -5/4/1 -2/4/1
v 0.5 0 2
v 0.5 0 1
v 0.5 0 -1
v 0.5 0 -2
v 0.5 1 2
v 0.5 1 1
v 0.5 1 -1
v 0.5 1 -2
v 0.5 4 4
v 0.5 4 3
v 0.5 4 -3
v 0.5 4 -4
v 0.5 7 4
v 0.5 7 3
v 0.5 7 -3
v 0.5 7 -4
f -16/6/2 -15/6/2 -12/6/2
f -12/6/2 -15/6/2 -11/6/2
f -14/6/2 -13/6/2 -10/6/2
f -10/6/2 -13/6/2 -9/6/2
f -8/4/2 -7/4/2 -4/4/2
f -4/4/2 -7/4/2 -3/4/2
f -6/4/2 -5/4/2 -2/4/2
f -2/4/2 -5/4/2 -1/4/2
v 1.5 1 3
v 1.5 1 1
v 1.5 1 -1
v 1.5 1 -3
v 1.5 2 3
v 1.5 2 1
v 1.5 2 -1
v 1.5 2 -3
v 1.5 13 2
v 1.5 13 -2
v 1.5 14 2
v 1.5 14 -2
f -12/4/2 -11/4/2 -8/4/2
f -8/4/2 -11/4/2 -7/4/2
f -10/4/2 -9/4/2 -6/4/2
f -6/4/2 -9/4/2 -5/4/2
f -4/4/2 -3/4/2 -2/4/2
f -2/4/2 -3/4/2 -1/4/2
v 2.5 2 3
v 2.5 2 -3
v 2.5 13 3
v 2.5 13 -3
f -4/4/2 -3/4/2 -2/4/2
f -2/4/2 -3/4/2 -1/4/2
v -0.5 4 4
v -0.5 7 4
v 0.5 4 4
v 0.5 7 4
f -2/4/3 -3/4/3 -4/4/3
f -1/4/3 -3/4/3 -2/4/3
v -2.5 2 3
v -2.5 13 3
v -1.5 1 3
v -1.5 2 3
v -0.5 4 3
v -0.5 7 3
v 0.5 4 3
v 0.5 7 3
v 1.5 1 3
v 1.5 2 3
v 2.5 2 3
v 2.5 13 3
f -9/4/3 -11/4/3 -12/4/3
f -8/4/3 -11/4/3 -9/4/3
f -8/4/3 -9/4/3 -10/4/3
f -7/4/3 -11/4/3 -8/4/3
f -6/4/3 -8/4/3 -10/4/3
f -5/4/3 -11/4/3 -7/4/3
f -4/4/3 -6/4/3 -10/4/3
f -4/4/3 -5/4/3 -6/4/3
f -3/4/3 -5/4/3 -4/4/3
f -2/4/3 -5/4/3 -3/4/3
f -1/4/3 -11/4/3 -5/4/3
f -1/4/3 -5/4/3 -2/4/3
v -1.5 13 2
v -1.5 14 2
v -0.5 0 2
v -0.5 1 2
v 0.5 0 2
v 0.5 1 2
v 1.5 13 2
v 1.5 14 2
f -4/6/3 -5/6/3 -6/6/3
f -3/6/3 -5/6/3 -4/6/3
f -2/4/3 -7/4/3 -8/4/3
f -1/4/3 -7/4/3 -2/4/3
v -1.5 1 -1
v -1.5 2 -1
v -0.5 0 -1
v -0.5 1 -1
v 0.5 0 -1
v 0.5 1 -1
v 1.5 1 -1
v 1.5 2 -1
f -5/4/3 -7/4/3 -8/4/3
f -4/6/3 -5/6/3 -6/6/3
f -3/4/3 -7/4/3 -5/4/3
f -3/6/3 -5/6/3 -4/6/3
f -2/4/3 -7/4/3 -3/4/3
f -1/4/3 -7/4/3 -2/4/3
v -1.5 1 1
v -1.5 2 1
v -0.5 0 1
v -0.5 1 1
v -0.5 2 1
v 0.5 0 1
v 0.5 1 1
v 0.5 2 1
v 1.5 1 1
v 1.5 2 1
f -10/4/4 -9/4/4 -7/4/4
f -7/4/4 -9/4/4 -6/4/4
f -8/6/4 -7/6/4 -5/6/4
f -7/3/4 -6/3/4 -4/3/4
f -5/6/4 -7/6/4 -4/6/4
f -4/3/4 -6/3/4 -3/3/4
f -4/4/4 -3/4/4 -2/4/4
f -2/4/4 -3/4/4 -1/4/4
v -1.5 13 -2
v -1.5 14 -2
v -0.5 0 -2
v -0.5 1 -2
v 0.5 0 -2
v 0.5 1 -2
v 1.5 13 -2
v 1.5 14 -2
f -6/6/4 -5/6/4 -4/6/4
f -4/6/4 -5/6/4 -3/6/4
f -8/4/4 -7/4/4 -2/4/4
f -2/4/4 -7/4/4 -1/4/4
v -2.5 2 -3
v -2.5 13 -3
v -1.5 1 -3
v -1.5 2 -3
v -0.5 4 -3
v -0.5 7 -3
v 0.5 4 -3
v 0.5 7 -3
v 1.5 1 -3
v 1.5 2 -3
v 2.5 2 -3
v 2.5 13 -3
f -12/4/4 -11/4/4 -9/4/4
f -9/4/4 -11/4/4 -8/4/4
f -10/4/4 -9/4/4 -8/4/4
f -8/4/4 -11/4/4 -7/4/4
f -10/4/4 -8/4/4 -6/4/4
f -7/4/4 -11/4/4 -5/4/4
f -10/4/4 -6/4/4 -4/4/4
f -6/4/4 -5/4/4 -4/4/4
f -4/4/4 -5/4/4 -3/4/4
f -3/4/4 -5/4/4 -2/4/4
f -5/4/4 -11/4/4 -1/4/4
f -2/4/4 -5/4/4 -1/4/4
v -0.5 4 -4
v -0.5 7 -4
v 0.5 4 -4
v 0.5 7 -4
f -4/4/4 -3/4/4 -2/4/4
f -2/4/4 -3/4/4 -1/4/4
v -0.5 0 2
v 0.5 0 2
v -0.5 0 1
v 0.5 0 1
v -0.5 0 -1
v 0.5 0 -1
v -0.5 0 -2
v 0.5 0 -2
f -6/6/5 -7/6/5 -8/6/5
f -5/6/5 -7/6/5 -6/6/5
f -2/6/5 -3/6/5 -4/6/5
f -1/6/5 -3/6/5 -2/6/5
v -1.5 1 3
v 1.5 1 3
v -0.5 1 2
v 0.5 1 2
v -1.5 1 1
v -0.5 1 1
v 0.5 1 1
v 1.5 1 1
v -1.5 1 -1
v -0.5 1 -1
v 0.5 1 -1
v 1.5 1 -1
v -0.5 1 -2
v 0.5 1 -2
v -1.5 1 -3
v 1.5 1 -3
f -14/4/5 -15/4/5 -16/4/5
f -13/4/5 -15/4/5 -14/4/5
f -12/4/5 -14/4/5 -16/4/5
f -11/4/5 -14/4/5 -12/4/5
f -10/4/5 -15/4/5 -13/4/5
f -9/4/5 -15/4/5 -10/4/5
f -4/4/5 -7/4/5 -8/4/5
f -3/4/5 -5/4/5 -6/4/5
f -2/4/5 -4/4/5 -8/4/5
f -2/4/5 -3/4/5 -4/4/5
f -1/4/5 -5/4/5 -3/4/5
f -1/4/5 -3/4/5 -2/4/5
v -2.5 2 3
v -1.5 2 3
v 1.5 2 3
v 2.5 2 3
v -1.5 2 1
v -0.5 2 1
v 0.5 2 1
v 1.5 2 1
v -1.5 2 -1
v 1.5 2 -1
v -2.5 2 -3
v -1.5 2 -3
v 1.5 2 -3
v 2.5 2 -3
f -10/4/5 -13/4/5 -14/4/5
f -7/4/5 -11/4/5 -12/4/5
f -6/4/5 -8/4/5 -9/4/5
f -6/4/5 -7/4/5 -8/4/5
f -6/4/5 -10/4/5 -14/4/5
f -6/4/5 -9/4/5 -10/4/5
f -5/4/5 -11/4/5 -7/4/5
f -5/4/5 -7/4/5 -6/4/5
f -4/4/5 -6/4/5 -14/4/5
f -3/4/5 -6/4/5 -4/4/5
f -2/4/5 -11/4/5 -5/4/5
f -1/4/5 -11/4/5 -2/4/5
v -0.5 4 4
v 0.5 4 4
v -0.5 4 3
v 0.5 4 3
v -0.5 4 -3
v 0.5 4 -3
v -0.5 4 -4
v 0.5 4 -4
f -6/4/5 -7/4/5 -8/4/5
f -5/4/5 -7/4/5 -6/4/5
f -2/4/5 -3/4/5 -4/4/5
f -1/4/5 -3/4/5 -2/4/5
v -0.5 7 4
v 0.5 7 4
v -0.5 7 3
v 0.5 7 3
v -0.5 7 -3
v 0.5 7 -3
v -0.5 7 -4
v 0.5 7 -4
f -8/4/6 -7/4/6 -6/4/6
f -6/4/6 -7/4/6 -5/4/6
f -4/4/6 -3/4/6 -2/4/6
f -2/4/6 -3/4/6 -1/4/6
v -2.5 13 3
v 2.5 13 3
v -1.5 13 2
v 1.5 13 2
v -1.5 13 -2
v 1.5 13 -2
v -2.5 13 -3
v 2.5 13 -3
f -8/4/6 -7/4/6 -6/4/6
f -6/4/6 -7/4/6 -5/4/6
f -8/4/6 -6/4/6 -4/4/6
f -5/4/6 -7/4/6 -3/4/6
f -8/4/6 -4/4/6 -2/4/6
f -4/4/6 -3/4/6 -2/4/6
f -3/4/6 -7/4/6 -1/4/6
f -2/4/6 -3/4/6 -1/4/6
v -1.5 14 2
v 1.5 14 2
v -1.5 14 -2
v 1.5 14 -2
f -4/4/6 -3/4/6 -2/4/6
f -2/4/6 -3/4/6 -1/4/6
