# MagicaVoxel @ ephtracy

# material
mtllib bigturtle.mtl
usemtl palette

# normals
vn -1 0 0
vn 1 0 0
vn 0 0 1
vn 0 0 -1
vn 0 -1 0
vn 0 1 0

# texcoords
vt 0.255859 0.5
vt 0.279297 0.5
vt 0.904297 0.5
vt 0.994141 0.5

# verts and faces
v -8 2 6
v -8 2 -10
v -8 4 6
v -8 4 4
v -8 4 -8
v -8 4 -10
v -8 6 4
v -8 6 -8
f -6/1/1 -7/1/1 -8/1/1
f -5/1/1 -7/1/1 -6/1/1
f -4/1/1 -7/1/1 -5/1/1
f -3/1/1 -7/1/1 -4/1/1
f -2/1/1 -4/1/1 -5/1/1
f -1/1/1 -4/1/1 -2/1/1
v -6 0 6
v -6 0 4
v -6 0 -8
v -6 0 -10
v -6 2 8
v -6 2 6
v -6 2 4
v -6 2 -8
v -6 2 -10
v -6 2 -12
v -6 4 8
v -6 4 6
v -6 4 4
v -6 4 -8
v -6 4 -10
v -6 4 -12
v -6 6 6
v -6 6 4
v -6 6 -8
v -6 6 -10
v -6 8 4
v -6 8 -8
f -17/3/1 -21/3/1 -22/3/1
f -16/3/1 -21/3/1 -17/3/1
f -15/3/1 -19/3/1 -20/3/1
f -14/3/1 -19/3/1 -15/3/1
f -12/1/1 -17/1/1 -18/1/1
f -11/1/1 -17/1/1 -12/1/1
f -8/1/1 -13/1/1 -14/1/1
f -7/1/1 -13/1/1 -8/1/1
f -6/1/1 -10/1/1 -11/1/1
f -5/1/1 -10/1/1 -6/1/1
f -4/1/1 -8/1/1 -9/1/1
f -3/1/1 -8/1/1 -4/1/1
f -2/1/1 -4/1/1 -5/1/1
f -1/1/1 -4/1/1 -2/1/1
v -4 4 12
v -4 4 8
v -4 4 6
v -4 4 -10
v -4 4 -12
v -4 6 12
v -4 6 10
v -4 6 8
v -4 6 6
v -4 6 4
v -4 6 -8
v -4 6 -10
v -4 6 -12
v -4 8 12
v -4 8 10
v -4 8 8
v -4 8 6
v -4 8 4
v -4 8 -8
v -4 8 -10
v -4 10 4
v -4 10 -8
f -17/3/1 -21/3/1 -22/3/1
f -16/3/1 -21/3/1 -17/3/1
f -15/1/1 -20/1/1 -21/1/1
f -15/3/1 -21/3/1 -16/3/1
f -14/1/1 -20/1/1 -15/1/1
f -11/1/1 -18/1/1 -19/1/1
f -10/1/1 -18/1/1 -11/1/1
f -9/4/1 -16/4/1 -17/4/1
f -8/3/1 -15/3/1 -16/3/1
f -8/4/1 -16/4/1 -9/4/1
f -7/3/1 -15/3/1 -8/3/1
f -6/1/1 -13/1/1 -14/1/1
f -5/1/1 -13/1/1 -6/1/1
f -4/1/1 -11/1/1 -12/1/1
f -3/1/1 -11/1/1 -4/1/1
f -2/1/1 -4/1/1 -5/1/1
f -1/1/1 -4/1/1 -2/1/1
v -2 2 12
v -2 2 11
v -2 2 8
v -2 4 12
v -2 4 11
v -2 4 8
v -2 6 8
v -2 6 6
v -2 8 8
v -2 8 6
v -2 8 4
v -2 10 6
v -2 10 4
f -10/2/1 -12/2/1 -13/2/1
f -9/3/1 -11/3/1 -12/3/1
f -9/2/1 -12/2/1 -10/2/1
f -8/3/1 -11/3/1 -9/3/1
f -5/1/1 -6/1/1 -7/1/1
f -4/1/1 -6/1/1 -5/1/1
f -2/1/1 -3/1/1 -4/1/1
f -1/1/1 -3/1/1 -2/1/1
v 4 0 6
v 4 0 4
v 4 0 -8
v 4 0 -10
v 4 2 6
v 4 2 4
v 4 2 -8
v 4 2 -10
f -4/3/1 -7/3/1 -8/3/1
f -3/3/1 -7/3/1 -4/3/1
f -2/3/1 -5/3/1 -6/3/1
f -1/3/1 -5/3/1 -2/3/1
v -4 0 6
v -4 0 4
v -4 0 -8
v -4 0 -10
v -4 2 6
v -4 2 4
v -4 2 -8
v -4 2 -10
f -8/3/2 -7/3/2 -4/3/2
f -4/3/2 -7/3/2 -3/3/2
f -6/3/2 -5/3/2 -2/3/2
f -2/3/2 -5/3/2 -1/3/2
v 2 2 12
v 2 2 11
v 2 2 8
v 2 4 12
v 2 4 11
v 2 4 8
v 2 6 8
v 2 6 6
v 2 8 8
v 2 8 6
v 2 8 4
v 2 10 6
v 2 10 4
f -13/2/2 -12/2/2 -10/2/2
f -12/3/2 -11/3/2 -9/3/2
f -10/2/2 -12/2/2 -9/2/2
f -9/3/2 -11/3/2 -8/3/2
f -7/1/2 -6/1/2 -5/1/2
f -5/1/2 -6/1/2 -4/1/2
f -4/1/2 -3/1/2 -2/1/2
f -2/1/2 -3/1/2 -1/1/2
v 4 4 12
v 4 4 8
v 4 4 6
v 4 4 -10
v 4 4 -12
v 4 6 12
v 4 6 10
v 4 6 8
v 4 6 6
v 4 6 4
v 4 6 -8
v 4 6 -10
v 4 6 -12
v 4 8 12
v 4 8 10
v 4 8 8
v 4 8 6
v 4 8 4
v 4 8 -8
v 4 8 -10
v 4 10 4
v 4 10 -8
f -22/3/2 -21/3/2 -17/3/2
f -17/3/2 -21/3/2 -16/3/2
f -21/1/2 -20/1/2 -15/1/2
f -16/3/2 -21/3/2 -15/3/2
f -15/1/2 -20/1/2 -14/1/2
f -19/1/2 -18/1/2 -11/1/2
f -11/1/2 -18/1/2 -10/1/2
f -17/4/2 -16/4/2 -9/4/2
f -16/3/2 -15/3/2 -8/3/2
f -9/4/2 -16/4/2 -8/4/2
f -8/3/2 -15/3/2 -7/3/2
f -14/1/2 -13/1/2 -6/1/2
f -6/1/2 -13/1/2 -5/1/2
f -12/1/2 -11/1/2 -4/1/2
f -4/1/2 -11/1/2 -3/1/2
f -5/1/2 -4/1/2 -2/1/2
f -2/1/2 -4/1/2 -1/1/2
v 6 0 6
v 6 0 4
v 6 0 -8
v 6 0 -10
v 6 2 8
v 6 2 6
v 6 2 4
v 6 2 -8
v 6 2 -10
v 6 2 -12
v 6 4 8
v 6 4 6
v 6 4 4
v 6 4 -8
v 6 4 -10
v 6 4 -12
v 6 6 6
v 6 6 4
v 6 6 -8
v 6 6 -10
v 6 8 4
v 6 8 -8
f -22/3/2 -21/3/2 -17/3/2
f -17/3/2 -21/3/2 -16/3/2
f -20/3/2 -19/3/2 -15/3/2
f -15/3/2 -19/3/2 -14/3/2
f -18/1/2 -17/1/2 -12/1/2
f -12/1/2 -17/1/2 -11/1/2
f -14/1/2 -13/1/2 -8/1/2
f -8/1/2 -13/1/2 -7/1/2
f -11/1/2 -10/1/2 -6/1/2
f -6/1/2 -10/1/2 -5/1/2
f -9/1/2 -8/1/2 -4/1/2
f -4/1/2 -8/1/2 -3/1/2
f -5/1/2 -4/1/2 -2/1/2
f -2/1/2 -4/1/2 -1/1/2
v 8 2 6
v 8 2 -10
v 8 4 6
v 8 4 4
v 8 4 -8
v 8 4 -10
v 8 6 4
v 8 6 -8
f -8/1/2 -7/1/2 -6/1/2
f -6/1/2 -7/1/2 -5/1/2
f -5/1/2 -7/1/2 -4/1/2
f -4/1/2 -7/1/2 -3/1/2
f -5/1/2 -4/1/2 -2/1/2
f -2/1/2 -4/1/2 -1/1/2
v -4 4 12
v -4 6 12
v -4 8 12
v -2 2 12
v -2 4 12
v -2 6 12
v -2 8 12
v 2 2 12
v 2 4 12
v 2 6 12
v 2 8 12
v 4 4 12
v 4 6 12
v 4 8 12
f -10/3/3 -13/3/3 -14/3/3
f -9/4/3 -12/4/3 -13/4/3
f -9/3/3 -13/3/3 -10/3/3
f -8/4/3 -12/4/3 -9/4/3
f -7/2/3 -10/2/3 -11/2/3
f -6/3/3 -9/3/3 -10/3/3
f -6/2/3 -10/2/3 -7/2/3
f -6/3/3 -8/3/3 -9/3/3
f -5/3/3 -8/3/3 -6/3/3
f -4/3/3 -8/3/3 -5/3/3
f -3/3/3 -5/3/3 -6/3/3
f -2/4/3 -4/4/3 -5/4/3
f -2/3/3 -5/3/3 -3/3/3
f -1/4/3 -4/4/3 -2/4/3
v -6 2 8
v -6 4 8
v -4 4 8
v -2 2 8
v -2 4 8
v 2 2 8
v 2 4 8
v 4 4 8
v 6 2 8
v 6 4 8
f -8/1/3 -9/1/3 -10/1/3
f -7/1/3 -8/1/3 -10/1/3
f -6/1/3 -8/1/3 -7/1/3
f -3/1/3 -4/1/3 -5/1/3
f -2/1/3 -3/1/3 -5/1/3
f -1/1/3 -3/1/3 -2/1/3
v -8 2 6
v -8 4 6
v -6 0 6
v -6 2 6
v -6 4 6
v -6 6 6
v -4 0 6
v -4 2 6
v -4 4 6
v -4 6 6
v -4 8 6
v -2 6 6
v -2 8 6
v -2 10 6
v 2 6 6
v 2 8 6
v 2 10 6
v 4 0 6
v 4 2 6
v 4 4 6
v 4 6 6
v 4 8 6
v 6 0 6
v 6 2 6
v 6 4 6
v 6 6 6
v 8 2 6
v 8 4 6
f -25/1/3 -27/1/3 -28/1/3
f -24/1/3 -27/1/3 -25/1/3
f -22/3/3 -25/3/3 -26/3/3
f -21/3/3 -25/3/3 -22/3/3
f -20/1/3 -23/1/3 -24/1/3
f -19/1/3 -23/1/3 -20/1/3
f -17/1/3 -18/1/3 -19/1/3
f -16/1/3 -18/1/3 -17/1/3
f -13/1/3 -15/1/3 -16/1/3
f -12/1/3 -15/1/3 -13/1/3
f -8/1/3 -13/1/3 -14/1/3
f -7/1/3 -13/1/3 -8/1/3
f -6/3/3 -10/3/3 -11/3/3
f -5/3/3 -10/3/3 -6/3/3
f -4/1/3 -8/1/3 -9/1/3
f -3/1/3 -8/1/3 -4/1/3
f -2/1/3 -4/1/3 -5/1/3
f -1/1/3 -4/1/3 -2/1/3
v -8 4 4
v -8 6 4
v -6 4 4
v -6 6 4
v -6 8 4
v -4 6 4
v -4 8 4
v -4 10 4
v -2 8 4
v -2 10 4
v 2 8 4
v 2 10 4
v 4 6 4
v 4 8 4
v 4 10 4
v 6 4 4
v 6 6 4
v 6 8 4
v 8 4 4
v 8 6 4
f -18/1/3 -19/1/3 -20/1/3
f -17/1/3 -19/1/3 -18/1/3
f -15/1/3 -16/1/3 -17/1/3
f -14/1/3 -16/1/3 -15/1/3
f -12/1/3 -13/1/3 -14/1/3
f -11/1/3 -13/1/3 -12/1/3
f -7/1/3 -9/1/3 -10/1/3
f -6/1/3 -9/1/3 -7/1/3
f -4/1/3 -7/1/3 -8/1/3
f -3/1/3 -7/1/3 -4/1/3
f -2/1/3 -4/1/3 -5/1/3
f -1/1/3 -4/1/3 -2/1/3
v -6 0 -8
v -6 2 -8
v -4 0 -8
v -4 2 -8
v 4 0 -8
v 4 2 -8
v 6 0 -8
v 6 2 -8
f -6/3/3 -7/3/3 -8/3/3
f -5/3/3 -7/3/3 -6/3/3
f -2/3/3 -3/3/3 -4/3/3
f -1/3/3 -3/3/3 -2/3/3
v -4 6 8
v -4 8 8
v -2 6 8
v -2 8 8
v 2 6 8
v 2 8 8
v 4 6 8
v 4 8 8
f -8/3/4 -7/3/4 -6/3/4
f -6/3/4 -7/3/4 -5/3/4
f -4/3/4 -3/3/4 -2/3/4
f -2/3/4 -3/3/4 -1/3/4
v -6 0 4
v -6 2 4
v -4 0 4
v -4 2 4
v 4 0 4
v 4 2 4
v 6 0 4
v 6 2 4
f -8/3/4 -7/3/4 -6/3/4
f -6/3/4 -7/3/4 -5/3/4
f -4/3/4 -3/3/4 -2/3/4
f -2/3/4 -3/3/4 -1/3/4
v -8 4 -8
v -8 6 -8
v -6 4 -8
v -6 6 -8
v -6 8 -8
v -4 6 -8
v -4 8 -8
v -4 10 -8
v 4 6 -8
v 4 8 -8
v 4 10 -8
v 6 4 -8
v 6 6 -8
v 6 8 -8
v 8 4 -8
v 8 6 -8
f -16/1/4 -15/1/4 -14/1/4
f -14/1/4 -15/1/4 -13/1/4
f -13/1/4 -12/1/4 -11/1/4
f -11/1/4 -12/1/4 -10/1/4
f -10/1/4 -9/1/4 -7/1/4
f -7/1/4 -9/1/4 -6/1/4
f -8/1/4 -7/1/4 -4/1/4
f -4/1/4 -7/1/4 -3/1/4
f -5/1/4 -4/1/4 -2/1/4
f -2/1/4 -4/1/4 -1/1/4
v -8 2 -10
v -8 4 -10
v -6 0 -10
v -6 2 -10
v -6 4 -10
v -6 6 -10
v -4 0 -10
v -4 2 -10
v -4 4 -10
v -4 6 -10
v -4 8 -10
v 4 0 -10
v 4 2 -10
v 4 4 -10
v 4 6 -10
v 4 8 -10
v 6 0 -10
v 6 2 -10
v 6 4 -10
v 6 6 -10
v 8 2 -10
v 8 4 -10
f -22/1/4 -21/1/4 -19/1/4
f -19/1/4 -21/1/4 -18/1/4
f -20/3/4 -19/3/4 -16/3/4
f -16/3/4 -19/3/4 -15/3/4
f -18/1/4 -17/1/4 -14/1/4
f -14/1/4 -17/1/4 -13/1/4
f -13/1/4 -12/1/4 -8/1/4
f -8/1/4 -12/1/4 -7/1/4
f -11/3/4 -10/3/4 -6/3/4
f -6/3/4 -10/3/4 -5/3/4
f -9/1/4 -8/1/4 -4/1/4
f -4/1/4 -8/1/4 -3/1/4
f -5/1/4 -4/1/4 -2/1/4
f -2/1/4 -4/1/4 -1/1/4
v -6 2 -12
v -6 4 -12
v -4 4 -12
v -4 6 -12
v 4 4 -12
v 4 6 -12
v 6 2 -12
v 6 4 -12
f -8/1/4 -7/1/4 -6/1/4
f -8/1/4 -6/1/4 -4/1/4
f -6/1/4 -5/1/4 -4/1/4
f -4/1/4 -5/1/4 -3/1/4
f -8/1/4 -4/1/4 -2/1/4
f -2/1/4 -4/1/4 -1/1/4
v -6 0 6
v -4 0 6
v 4 0 6
v 6 0 6
v -6 0 4
v -4 0 4
v 4 0 4
v 6 0 4
v -6 0 -8
v -4 0 -8
v 4 0 -8
v 6 0 -8
v -6 0 -10
v -4 0 -10
v 4 0 -10
v 6 0 -10
f -12/3/5 -15/3/5 -16/3/5
f -11/3/5 -15/3/5 -12/3/5
f -10/3/5 -13/3/5 -14/3/5
f -9/3/5 -13/3/5 -10/3/5
f -4/3/5 -7/3/5 -8/3/5
f -3/3/5 -7/3/5 -4/3/5
f -2/3/5 -5/3/5 -6/3/5
f -1/3/5 -5/3/5 -2/3/5
v -2 2 12
v 2 2 12
v -2 2 11
v -1 2 11
v 1 2 11
v 2 2 11
v -1 2 10
v 1 2 10
v -6 2 8
v -2 2 8
v 2 2 8
v 6 2 8
v -8 2 6
v -6 2 6
v -4 2 6
v 4 2 6
v 6 2 6
v 8 2 6
v -6 2 4
v -4 2 4
v 4 2 4
v 6 2 4
v -6 2 -8
v -4 2 -8
v 4 2 -8
v 6 2 -8
v -8 2 -10
v -6 2 -10
v -4 2 -10
v 4 2 -10
v 6 2 -10
v 8 2 -10
v -6 2 -12
v 6 2 -12
f -32/2/5 -33/2/5 -34/2/5
f -31/2/5 -33/2/5 -32/2/5
f -30/2/5 -33/2/5 -31/2/5
f -29/2/5 -33/2/5 -30/2/5
f -28/3/5 -31/3/5 -32/3/5
f -28/2/5 -30/2/5 -31/2/5
f -27/3/5 -29/3/5 -30/3/5
f -27/2/5 -30/2/5 -28/2/5
f -25/3/5 -28/3/5 -32/3/5
f -25/3/5 -27/3/5 -28/3/5
f -24/3/5 -29/3/5 -27/3/5
f -24/3/5 -27/3/5 -25/3/5
f -21/1/5 -24/1/5 -25/1/5
f -21/1/5 -23/1/5 -24/1/5
f -21/1/5 -25/1/5 -26/1/5
f -20/1/5 -23/1/5 -21/1/5
f -19/1/5 -23/1/5 -20/1/5
f -18/1/5 -23/1/5 -19/1/5
f -16/1/5 -21/1/5 -22/1/5
f -15/1/5 -19/1/5 -20/1/5
f -14/1/5 -19/1/5 -15/1/5
f -13/1/5 -17/1/5 -18/1/5
f -12/1/5 -14/1/5 -15/1/5
f -12/1/5 -13/1/5 -14/1/5
f -12/1/5 -16/1/5 -22/1/5
f -12/1/5 -15/1/5 -16/1/5
f -11/1/5 -13/1/5 -12/1/5
f -10/1/5 -13/1/5 -11/1/5
f -9/1/5 -17/1/5 -13/1/5
f -9/1/5 -13/1/5 -10/1/5
f -8/1/5 -12/1/5 -22/1/5
f -7/1/5 -12/1/5 -8/1/5
f -6/1/5 -10/1/5 -11/1/5
f -5/1/5 -10/1/5 -6/1/5
f -4/1/5 -17/1/5 -9/1/5
f -3/1/5 -17/1/5 -4/1/5
f -2/1/5 -5/1/5 -6/1/5
f -2/1/5 -4/1/5 -5/1/5
f -2/1/5 -6/1/5 -7/1/5
f -1/1/5 -4/1/5 -2/1/5
v -4 4 12
v -2 4 12
v 2 4 12
v 4 4 12
v -2 4 11
v 2 4 11
v -4 4 8
v -2 4 8
v 2 4 8
v 4 4 8
f -6/3/5 -9/3/5 -10/3/5
f -5/3/5 -7/3/5 -8/3/5
f -4/3/5 -6/3/5 -10/3/5
f -3/3/5 -6/3/5 -4/3/5
f -2/3/5 -7/3/5 -5/3/5
f -1/3/5 -7/3/5 -2/3/5
v -6 4 8
v -4 4 8
v 4 4 8
v 6 4 8
v -8 4 6
v -6 4 6
v -4 4 6
v 4 4 6
v 6 4 6
v 8 4 6
v -8 4 4
v -6 4 4
v 6 4 4
v 8 4 4
v -8 4 -8
v -6 4 -8
v 6 4 -8
v 8 4 -8
v -8 4 -10
v -6 4 -10
v -4 4 -10
v 4 4 -10
v 6 4 -10
v 8 4 -10
v -6 4 -12
v -4 4 -12
v 4 4 -12
v 6 4 -12
f -28/1/6 -27/1/6 -23/1/6
f -23/1/6 -27/1/6 -22/1/6
f -26/1/6 -25/1/6 -21/1/6
f -21/1/6 -25/1/6 -20/1/6
f -24/1/6 -23/1/6 -18/1/6
f -18/1/6 -23/1/6 -17/1/6
f -20/1/6 -19/1/6 -16/1/6
f -16/1/6 -19/1/6 -15/1/6
f -14/1/6 -13/1/6 -10/1/6
f -10/1/6 -13/1/6 -9/1/6
f -12/1/6 -11/1/6 -6/1/6
f -6/1/6 -11/1/6 -5/1/6
f -9/1/6 -8/1/6 -4/1/6
f -4/1/6 -8/1/6 -3/1/6
f -7/1/6 -6/1/6 -2/1/6
f -2/1/6 -6/1/6 -1/1/6
v -4 6 8
v -2 6 8
v 2 6 8
v 4 6 8
v -6 6 6
v -4 6 6
v -2 6 6
v 2 6 6
v 4 6 6
v 6 6 6
v -8 6 4
v -6 6 4
v -4 6 4
v 4 6 4
v 6 6 4
v 8 6 4
v -8 6 -8
v -6 6 -8
v -4 6 -8
v 4 6 -8
v 6 6 -8
v 8 6 -8
v -6 6 -10
v -4 6 -10
v 4 6 -10
v 6 6 -10
v -4 6 -12
v 4 6 -12
f -28/1/6 -27/1/6 -23/1/6
f -23/1/6 -27/1/6 -22/1/6
f -26/1/6 -25/1/6 -21/1/6
f -21/1/6 -25/1/6 -20/1/6
f -24/1/6 -23/1/6 -17/1/6
f -17/1/6 -23/1/6 -16/1/6
f -20/1/6 -19/1/6 -15/1/6
f -15/1/6 -19/1/6 -14/1/6
f -18/1/6 -17/1/6 -12/1/6
f -12/1/6 -17/1/6 -11/1/6
f -14/1/6 -13/1/6 -8/1/6
f -8/1/6 -13/1/6 -7/1/6
f -11/1/6 -10/1/6 -6/1/6
f -6/1/6 -10/1/6 -5/1/6
f -9/1/6 -8/1/6 -4/1/6
f -4/1/6 -8/1/6 -3/1/6
f -5/1/6 -4/1/6 -2/1/6
f -2/1/6 -4/1/6 -1/1/6
v -4 8 12
v -2 8 12
v 2 8 12
v 4 8 12
v -4 8 10
v -2 8 10
v 2 8 10
v 4 8 10
v -4 8 8
v -2 8 8
v 2 8 8
v 4 8 8
v -4 8 6
v -2 8 6
v 2 8 6
v 4 8 6
v -6 8 4
v -4 8 4
v -2 8 4
v 2 8 4
v 4 8 4
v 6 8 4
v -6 8 -8
v -4 8 -8
v 4 8 -8
v 6 8 -8
v -4 8 -10
v 4 8 -10
f -28/4/6 -27/4/6 -24/4/6
f -27/3/6 -26/3/6 -23/3/6
f -24/4/6 -27/4/6 -23/4/6
f -26/4/6 -25/4/6 -22/4/6
f -23/3/6 -26/3/6 -22/3/6
f -22/4/6 -25/4/6 -21/4/6
f -24/3/6 -23/3/6 -20/3/6
f -23/3/6 -22/3/6 -20/3/6
f -22/3/6 -21/3/6 -20/3/6
f -20/3/6 -21/3/6 -19/3/6
f -19/3/6 -21/3/6 -18/3/6
f -18/3/6 -21/3/6 -17/3/6
f -19/1/6 -18/1/6 -15/1/6
f -15/1/6 -18/1/6 -14/1/6
f -16/1/6 -15/1/6 -11/1/6
f -11/1/6 -15/1/6 -10/1/6
f -14/1/6 -13/1/6 -9/1/6
f -9/1/6 -13/1/6 -8/1/6
f -12/1/6 -11/1/6 -6/1/6
f -6/1/6 -11/1/6 -5/1/6
f -8/1/6 -7/1/6 -4/1/6
f -4/1/6 -7/1/6 -3/1/6
f -5/1/6 -4/1/6 -2/1/6
f -2/1/6 -4/1/6 -1/1/6
v -2 10 6
v 2 10 6
v -4 10 4
v -2 10 4
v 2 10 4
v 4 10 4
v -4 10 -8
v 4 10 -8
f -8/1/6 -7/1/6 -5/1/6
f -5/1/6 -7/1/6 -4/1/6
f -6/1/6 -5/1/6 -2/1/6
f -4/1/6 -3/1/6 -2/1/6
f -5/1/6 -4/1/6 -2/1/6
f -2/1/6 -3/1/6 -1/1/6
