# MagicaVoxel @ ephtracy

# material
mtllib missing.mtl
usemtl palette

# normals
vn -1 0 0
vn 1 0 0
vn 0 0 1
vn 0 0 -1
vn 0 -1 0
vn 0 1 0

# texcoords
vt 0.841797 0.5

# verts and faces
v -5 0 1
v -5 0 -1
v -5 2 1
v -5 2 -1
v -5 8 1
v -5 8 -1
v -5 10 1
v -5 10 -1
f -6/1/1 -7/1/1 -8/1/1
f -5/1/1 -7/1/1 -6/1/1
f -2/1/1 -3/1/1 -4/1/1
f -1/1/1 -3/1/1 -2/1/1
v -4 2 1
v -4 2 -1
v -4 3 1
v -4 3 -1
v -4 7 1
v -4 7 -1
v -4 8 1
v -4 8 -1
f -6/1/1 -7/1/1 -8/1/1
f -5/1/1 -7/1/1 -6/1/1
f -2/1/1 -3/1/1 -4/1/1
f -1/1/1 -3/1/1 -2/1/1
v -3 3 1
v -3 3 -1
v -3 4 1
v -3 4 -1
v -3 6 1
v -3 6 -1
v -3 7 1
v -3 7 -1
f -6/1/1 -7/1/1 -8/1/1
f -5/1/1 -7/1/1 -6/1/1
f -2/1/1 -3/1/1 -4/1/1
f -1/1/1 -3/1/1 -2/1/1
v -2 4 1
v -2 4 -1
v -2 6 1
v -2 6 -1
f -2/1/1 -3/1/1 -4/1/1
f -1/1/1 -3/1/1 -2/1/1
v 1 2 1
v 1 2 -1
v 1 3 1
v 1 3 -1
v 1 7 1
v 1 7 -1
v 1 8 1
v 1 8 -1
f -6/1/1 -7/1/1 -8/1/1
f -5/1/1 -7/1/1 -6/1/1
f -2/1/1 -3/1/1 -4/1/1
f -1/1/1 -3/1/1 -2/1/1
v 2 1 1
v 2 1 -1
v 2 2 1
v 2 2 -1
v 2 8 1
v 2 8 -1
v 2 9 1
v 2 9 -1
f -6/1/1 -7/1/1 -8/1/1
f -5/1/1 -7/1/1 -6/1/1
f -2/1/1 -3/1/1 -4/1/1
f -1/1/1 -3/1/1 -2/1/1
v 3 0 1
v 3 0 -1
v 3 1 1
v 3 1 -1
v 3 9 1
v 3 9 -1
v 3 10 1
v 3 10 -1
f -6/1/1 -7/1/1 -8/1/1
f -5/1/1 -7/1/1 -6/1/1
f -2/1/1 -3/1/1 -4/1/1
f -1/1/1 -3/1/1 -2/1/1
v -3 0 1
v -3 0 -1
v -3 1 1
v -3 1 -1
v -3 9 1
v -3 9 -1
v -3 10 1
v -3 10 -1
f -8/1/2 -7/1/2 -6/1/2
f -6/1/2 -7/1/2 -5/1/2
f -4/1/2 -3/1/2 -2/1/2
f -2/1/2 -3/1/2 -1/1/2
v -2 1 1
v -2 1 -1
v -2 2 1
v -2 2 -1
v -2 8 1
v -2 8 -1
v -2 9 1
v -2 9 -1
f -8/1/2 -7/1/2 -6/1/2
f -6/1/2 -7/1/2 -5/1/2
f -4/1/2 -3/1/2 -2/1/2
f -2/1/2 -3/1/2 -1/1/2
v -1 2 1
v -1 2 -1
v -1 3 1
v -1 3 -1
v -1 7 1
v -1 7 -1
v -1 8 1
v -1 8 -1
f -8/1/2 -7/1/2 -6/1/2
f -6/1/2 -7/1/2 -5/1/2
f -4/1/2 -3/1/2 -2/1/2
f -2/1/2 -3/1/2 -1/1/2
v 2 4 1
v 2 4 -1
v 2 6 1
v 2 6 -1
f -4/1/2 -3/1/2 -2/1/2
f -2/1/2 -3/1/2 -1/1/2
v 3 3 1
v 3 3 -1
v 3 4 1
v 3 4 -1
v 3 6 1
v 3 6 -1
v 3 7 1
v 3 7 -1
f -8/1/2 -7/1/2 -6/1/2
f -6/1/2 -7/1/2 -5/1/2
f -4/1/2 -3/1/2 -2/1/2
f -2/1/2 -3/1/2 -1/1/2
v 4 2 1
v 4 2 -1
v 4 3 1
v 4 3 -1
v 4 7 1
v 4 7 -1
v 4 8 1
v 4 8 -1
f -8/1/2 -7/1/2 -6/1/2
f -6/1/2 -7/1/2 -5/1/2
f -4/1/2 -3/1/2 -2/1/2
f -2/1/2 -3/1/2 -1/1/2
v 5 0 1
v 5 0 -1
v 5 2 1
v 5 2 -1
v 5 8 1
v 5 8 -1
v 5 10 1
v 5 10 -1
f -8/1/2 -7/1/2 -6/1/2
f -6/1/2 -7/1/2 -5/1/2
f -4/1/2 -3/1/2 -2/1/2
f -2/1/2 -3/1/2 -1/1/2
v -5 0 1
v -5 2 1
v -5 8 1
v -5 10 1
v -4 2 1
v -4 3 1
v -4 7 1
v -4 8 1
v -3 0 1
v -3 1 1
v -3 3 1
v -3 4 1
v -3 6 1
v -3 7 1
v -3 9 1
v -3 10 1
v -2 1 1
v -2 2 1
v -2 4 1
v -2 6 1
v -2 8 1
v -2 9 1
v -1 2 1
v -1 3 1
v -1 7 1
v -1 8 1
v 1 2 1
v 1 3 1
v 1 7 1
v 1 8 1
v 2 1 1
v 2 2 1
v 2 4 1
v 2 6 1
v 2 8 1
v 2 9 1
v 3 0 1
v 3 1 1
v 3 3 1
v 3 4 1
v 3 6 1
v 3 7 1
v 3 9 1
v 3 10 1
v 4 2 1
v 4 3 1
v 4 7 1
v 4 8 1
v 5 0 1
v 5 2 1
v 5 8 1
v 5 10 1
f -48/1/3 -51/1/3 -52/1/3
f -45/1/3 -49/1/3 -50/1/3
f -44/1/3 -47/1/3 -48/1/3
f -44/1/3 -48/1/3 -52/1/3
f -43/1/3 -47/1/3 -44/1/3
f -42/1/3 -47/1/3 -43/1/3
f -39/1/3 -45/1/3 -46/1/3
f -38/1/3 -49/1/3 -45/1/3
f -38/1/3 -45/1/3 -39/1/3
f -37/1/3 -49/1/3 -38/1/3
f -36/1/3 -41/1/3 -42/1/3
f -36/1/3 -42/1/3 -43/1/3
f -35/1/3 -41/1/3 -36/1/3
f -34/1/3 -41/1/3 -35/1/3
f -33/1/3 -39/1/3 -40/1/3
f -33/1/3 -38/1/3 -39/1/3
f -32/1/3 -38/1/3 -33/1/3
f -31/1/3 -38/1/3 -32/1/3
f -30/1/3 -34/1/3 -35/1/3
f -30/1/3 -32/1/3 -33/1/3
f -30/1/3 -33/1/3 -34/1/3
f -29/1/3 -32/1/3 -30/1/3
f -28/1/3 -32/1/3 -29/1/3
f -27/1/3 -32/1/3 -28/1/3
f -25/1/3 -28/1/3 -29/1/3
f -24/1/3 -28/1/3 -25/1/3
f -21/1/3 -25/1/3 -26/1/3
f -21/1/3 -23/1/3 -24/1/3
f -21/1/3 -24/1/3 -25/1/3
f -20/1/3 -23/1/3 -21/1/3
f -19/1/3 -23/1/3 -20/1/3
f -18/1/3 -23/1/3 -19/1/3
f -15/1/3 -21/1/3 -22/1/3
f -15/1/3 -20/1/3 -21/1/3
f -14/1/3 -20/1/3 -15/1/3
f -13/1/3 -20/1/3 -14/1/3
f -12/1/3 -18/1/3 -19/1/3
f -12/1/3 -17/1/3 -18/1/3
f -11/1/3 -17/1/3 -12/1/3
f -10/1/3 -17/1/3 -11/1/3
f -8/1/3 -14/1/3 -15/1/3
f -8/1/3 -15/1/3 -16/1/3
f -7/1/3 -14/1/3 -8/1/3
f -6/1/3 -10/1/3 -11/1/3
f -6/1/3 -9/1/3 -10/1/3
f -5/1/3 -9/1/3 -6/1/3
f -4/1/3 -8/1/3 -16/1/3
f -3/1/3 -8/1/3 -4/1/3
f -2/1/3 -9/1/3 -5/1/3
f -1/1/3 -9/1/3 -2/1/3
v -5 0 -1
v -5 2 -1
v -5 8 -1
v -5 10 -1
v -4 2 -1
v -4 3 -1
v -4 7 -1
v -4 8 -1
v -3 0 -1
v -3 1 -1
v -3 3 -1
v -3 4 -1
v -3 6 -1
v -3 7 -1
v -3 9 -1
v -3 10 -1
v -2 1 -1
v -2 2 -1
v -2 4 -1
v -2 6 -1
v -2 8 -1
v -2 9 -1
v -1 2 -1
v -1 3 -1
v -1 7 -1
v -1 8 -1
v 1 2 -1
v 1 3 -1
v 1 7 -1
v 1 8 -1
v 2 1 -1
v 2 2 -1
v 2 4 -1
v 2 6 -1
v 2 8 -1
v 2 9 -1
v 3 0 -1
v 3 1 -1
v 3 3 -1
v 3 4 -1
v 3 6 -1
v 3 7 -1
v 3 9 -1
v 3 10 -1
v 4 2 -1
v 4 3 -1
v 4 7 -1
v 4 8 -1
v 5 0 -1
v 5 2 -1
v 5 8 -1
v 5 10 -1
f -52/1/4 -51/1/4 -48/1/4
f -50/1/4 -49/1/4 -45/1/4
f -48/1/4 -47/1/4 -44/1/4
f -52/1/4 -48/1/4 -44/1/4
f -44/1/4 -47/1/4 -43/1/4
f -43/1/4 -47/1/4 -42/1/4
f -46/1/4 -45/1/4 -39/1/4
f -45/1/4 -49/1/4 -38/1/4
f -39/1/4 -45/1/4 -38/1/4
f -38/1/4 -49/1/4 -37/1/4
f -42/1/4 -41/1/4 -36/1/4
f -43/1/4 -42/1/4 -36/1/4
f -36/1/4 -41/1/4 -35/1/4
f -35/1/4 -41/1/4 -34/1/4
f -40/1/4 -39/1/4 -33/1/4
f -39/1/4 -38/1/4 -33/1/4
f -33/1/4 -38/1/4 -32/1/4
f -32/1/4 -38/1/4 -31/1/4
f -35/1/4 -34/1/4 -30/1/4
f -33/1/4 -32/1/4 -30/1/4
f -34/1/4 -33/1/4 -30/1/4
f -30/1/4 -32/1/4 -29/1/4
f -29/1/4 -32/1/4 -28/1/4
f -28/1/4 -32/1/4 -27/1/4
f -29/1/4 -28/1/4 -25/1/4
f -25/1/4 -28/1/4 -24/1/4
f -26/1/4 -25/1/4 -21/1/4
f -24/1/4 -23/1/4 -21/1/4
f -25/1/4 -24/1/4 -21/1/4
f -21/1/4 -23/1/4 -20/1/4
f -20/1/4 -23/1/4 -19/1/4
f -19/1/4 -23/1/4 -18/1/4
f -22/1/4 -21/1/4 -15/1/4
f -21/1/4 -20/1/4 -15/1/4
f -15/1/4 -20/1/4 -14/1/4
f -14/1/4 -20/1/4 -13/1/4
f -19/1/4 -18/1/4 -12/1/4
f -18/1/4 -17/1/4 -12/1/4
f -12/1/4 -17/1/4 -11/1/4
f -11/1/4 -17/1/4 -10/1/4
f -15/1/4 -14/1/4 -8/1/4
f -16/1/4 -15/1/4 -8/1/4
f -8/1/4 -14/1/4 -7/1/4
f -11/1/4 -10/1/4 -6/1/4
f -10/1/4 -9/1/4 -6/1/4
f -6/1/4 -9/1/4 -5/1/4
f -16/1/4 -8/1/4 -4/1/4
f -4/1/4 -8/1/4 -3/1/4
f -5/1/4 -9/1/4 -2/1/4
f -2/1/4 -9/1/4 -1/1/4
v -5 0 1
v -3 0 1
v 3 0 1
v 5 0 1
v -5 0 -1
v -3 0 -1
v 3 0 -1
v 5 0 -1
f -4/1/5 -7/1/5 -8/1/5
f -3/1/5 -7/1/5 -4/1/5
f -2/1/5 -5/1/5 -6/1/5
f -1/1/5 -5/1/5 -2/1/5
v -3 1 1
v -2 1 1
v 2 1 1
v 3 1 1
v -3 1 -1
v -2 1 -1
v 2 1 -1
v 3 1 -1
f -4/1/5 -7/1/5 -8/1/5
f -3/1/5 -7/1/5 -4/1/5
f -2/1/5 -5/1/5 -6/1/5
f -1/1/5 -5/1/5 -2/1/5
v -2 2 1
v -1 2 1
v 1 2 1
v 2 2 1
v -2 2 -1
v -1 2 -1
v 1 2 -1
v 2 2 -1
f -4/1/5 -7/1/5 -8/1/5
f -3/1/5 -7/1/5 -4/1/5
f -2/1/5 -5/1/5 -6/1/5
f -1/1/5 -5/1/5 -2/1/5
v -1 3 1
v 1 3 1
v -1 3 -1
v 1 3 -1
f -2/1/5 -3/1/5 -4/1/5
f -1/1/5 -3/1/5 -2/1/5
v -3 6 1
v -2 6 1
v 2 6 1
v 3 6 1
v -3 6 -1
v -2 6 -1
v 2 6 -1
v 3 6 -1
f -4/1/5 -7/1/5 -8/1/5
f -3/1/5 -7/1/5 -4/1/5
f -2/1/5 -5/1/5 -6/1/5
f -1/1/5 -5/1/5 -2/1/5
v -4 7 1
v -3 7 1
v 3 7 1
v 4 7 1
v -4 7 -1
v -3 7 -1
v 3 7 -1
v 4 7 -1
f -4/1/5 -7/1/5 -8/1/5
f -3/1/5 -7/1/5 -4/1/5
f -2/1/5 -5/1/5 -6/1/5
f -1/1/5 -5/1/5 -2/1/5
v -5 8 1
v -4 8 1
v 4 8 1
v 5 8 1
v -5 8 -1
v -4 8 -1
v 4 8 -1
v 5 8 -1
f -4/1/5 -7/1/5 -8/1/5
f -3/1/5 -7/1/5 -4/1/5
f -2/1/5 -5/1/5 -6/1/5
f -1/1/5 -5/1/5 -2/1/5
v -5 2 1
v -4 2 1
v 4 2 1
v 5 2 1
v -5 2 -1
v -4 2 -1
v 4 2 -1
v 5 2 -1
f -8/1/6 -7/1/6 -4/1/6
f -4/1/6 -7/1/6 -3/1/6
f -6/1/6 -5/1/6 -2/1/6
f -2/1/6 -5/1/6 -1/1/6
v -4 3 1
v -3 3 1
v 3 3 1
v 4 3 1
v -4 3 -1
v -3 3 -1
v 3 3 -1
v 4 3 -1
f -8/1/6 -7/1/6 -4/1/6
f -4/1/6 -7/1/6 -3/1/6
f -6/1/6 -5/1/6 -2/1/6
f -2/1/6 -5/1/6 -1/1/6
v -3 4 1
v -2 4 1
v 2 4 1
v 3 4 1
v -3 4 -1
v -2 4 -1
v 2 4 -1
v 3 4 -1
f -8/1/6 -7/1/6 -4/1/6
f -4/1/6 -7/1/6 -3/1/6
f -6/1/6 -5/1/6 -2/1/6
f -2/1/6 -5/1/6 -1/1/6
v -1 7 1
v 1 7 1
v -1 7 -1
v 1 7 -1
f -4/1/6 -3/1/6 -2/1/6
f -2/1/6 -3/1/6 -1/1/6
v -2 8 1
v -1 8 1
v 1 8 1
v 2 8 1
v -2 8 -1
v -1 8 -1
v 1 8 -1
v 2 8 -1
f -8/1/6 -7/1/6 -4/1/6
f -4/1/6 -7/1/6 -3/1/6
f -6/1/6 -5/1/6 -2/1/6
f -2/1/6 -5/1/6 -1/1/6
v -3 9 1
v -2 9 1
v 2 9 1
v 3 9 1
v -3 9 -1
v -2 9 -1
v 2 9 -1
v 3 9 -1
f -8/1/6 -7/1/6 -4/1/6
f -4/1/6 -7/1/6 -3/1/6
f -6/1/6 -5/1/6 -2/1/6
f -2/1/6 -5/1/6 -1/1/6
v -5 10 1
v -3 10 1
v 3 10 1
v 5 10 1
v -5 10 -1
v -3 10 -1
v 3 10 -1
v 5 10 -1
f -8/1/6 -7/1/6 -4/1/6
f -4/1/6 -7/1/6 -3/1/6
f -6/1/6 -5/1/6 -2/1/6
f -2/1/6 -5/1/6 -1/1/6
