# MagicaVoxel @ ephtracy

# material
mtllib postsign.mtl
usemtl palette

# normals
vn -1 0 0
vn 1 0 0
vn 0 0 1
vn 0 0 -1
vn 0 -1 0
vn 0 1 0

# texcoords
vt 0.373047 0.5
vt 0.958984 0.5

# verts and faces
v -8 8 1.5
v -8 8 0.5
v -8 16 1.5
v -8 16 0.5
f -2/1/1 -3/1/1 -4/1/1
f -1/1/1 -3/1/1 -2/1/1
v -1 0 0.5
v -1 0 -1.5
v -1 8 0.5
v -1 9 0.5
v -1 15 0.5
v -1 16 0.5
v -1 16 -1.5
f -5/1/1 -6/1/1 -7/1/1
f -4/1/1 -6/1/1 -5/1/1
f -3/1/1 -6/1/1 -4/1/1
f -2/1/1 -6/1/1 -3/1/1
f -1/1/1 -6/1/1 -2/1/1
v 2 0 0.5
v 2 0 -1.5
v 2 8 0.5
v 2 9 0.5
v 2 15 0.5
v 2 16 0.5
v 2 16 -1.5
f -7/1/2 -6/1/2 -5/1/2
f -5/1/2 -6/1/2 -4/1/2
f -4/1/2 -6/1/2 -3/1/2
f -3/1/2 -6/1/2 -2/1/2
f -2/1/2 -6/1/2 -1/1/2
v 8 8 1.5
v 8 8 0.5
v 8 16 1.5
v 8 16 0.5
f -4/1/2 -3/1/2 -2/1/2
f -2/1/2 -3/1/2 -1/1/2
v -8 8 1.5
v -8 16 1.5
v -7 9 1.5
v -7 15 1.5
v 7 9 1.5
v 7 15 1.5
v 8 8 1.5
v 8 16 1.5
f -6/1/3 -7/1/3 -8/1/3
f -5/1/3 -7/1/3 -6/1/3
f -4/1/3 -6/1/3 -8/1/3
f -4/2/3 -5/2/3 -6/2/3
f -3/1/3 -7/1/3 -5/1/3
f -3/2/3 -5/2/3 -4/2/3
f -2/1/3 -4/1/3 -8/1/3
f -2/1/3 -3/1/3 -4/1/3
f -1/1/3 -7/1/3 -3/1/3
f -1/1/3 -3/1/3 -2/1/3
v -1 0 0.5
v -1 8 0.5
v 2 0 0.5
v 2 8 0.5
f -2/1/3 -3/1/3 -4/1/3
f -1/1/3 -3/1/3 -2/1/3
v -8 8 0.5
v -8 16 0.5
v -7 9 0.5
v -7 15 0.5
v -1 8 0.5
v -1 9 0.5
v -1 15 0.5
v -1 16 0.5
v 2 8 0.5
v 2 9 0.5
v 2 15 0.5
v 2 16 0.5
v 7 9 0.5
v 7 15 0.5
v 8 8 0.5
v 8 16 0.5
f -16/1/4 -15/1/4 -14/1/4
f -14/1/4 -15/1/4 -13/1/4
f -16/1/4 -14/1/4 -12/1/4
f -14/2/4 -13/2/4 -11/2/4
f -12/1/4 -14/1/4 -11/1/4
f -13/1/4 -15/1/4 -10/1/4
f -11/2/4 -13/2/4 -10/2/4
f -10/1/4 -15/1/4 -9/1/4
f -8/1/4 -7/1/4 -4/1/4
f -7/2/4 -6/2/4 -4/2/4
f -6/1/4 -5/1/4 -3/1/4
f -4/2/4 -6/2/4 -3/2/4
f -8/1/4 -4/1/4 -2/1/4
f -4/1/4 -3/1/4 -2/1/4
f -3/1/4 -5/1/4 -1/1/4
f -2/1/4 -3/1/4 -1/1/4
v -1 0 -1.5
v -1 16 -1.5
v 2 0 -1.5
v 2 16 -1.5
f -4/1/4 -3/1/4 -2/1/4
f -2/1/4 -3/1/4 -1/1/4
v -1 0 0.5
v 2 0 0.5
v -1 0 -1.5
v 2 0 -1.5
f -2/1/5 -3/1/5 -4/1/5
f -1/1/5 -3/1/5 -2/1/5
v -8 8 1.5
v 8 8 1.5
v -8 8 0.5
v -1 8 0.5
v 2 8 0.5
v 8 8 0.5
f -4/1/5 -5/1/5 -6/1/5
f -3/1/5 -5/1/5 -4/1/5
f -2/1/5 -5/1/5 -3/1/5
f -1/1/5 -5/1/5 -2/1/5
v -8 16 1.5
v 8 16 1.5
v -8 16 0.5
v -1 16 0.5
v 2 16 0.5
v 8 16 0.5
v -1 16 -1.5
v 2 16 -1.5
f -8/1/6 -7/1/6 -6/1/6
f -6/1/6 -7/1/6 -5/1/6
f -5/1/6 -7/1/6 -4/1/6
f -4/1/6 -7/1/6 -3/1/6
f -5/1/6 -4/1/6 -2/1/6
f -2/1/6 -4/1/6 -1/1/6
