# MagicaVoxel @ ephtracy

# material
mtllib powerboost.mtl
usemtl palette

# normals
vn -1 0 0
vn 1 0 0
vn 0 0 1
vn 0 0 -1
vn 0 -1 0
vn 0 1 0

# texcoords
vt 0.587891 0.5

# verts and faces
v -4 0 1
v -4 0 -1
v -4 13 1
v -4 13 -1
f -2/1/1 -3/1/1 -4/1/1
f -1/1/1 -3/1/1 -2/1/1
v 2 7 1
v 2 7 -1
v 2 10 1
v 2 10 -1
f -2/1/1 -3/1/1 -4/1/1
f -1/1/1 -3/1/1 -2/1/1
v -2 7 1
v -2 7 -1
v -2 10 1
v -2 10 -1
f -4/1/2 -3/1/2 -2/1/2
f -2/1/2 -3/1/2 -1/1/2
v -1 0 1
v -1 0 -1
v -1 4 1
v -1 4 -1
f -4/1/2 -3/1/2 -2/1/2
f -2/1/2 -3/1/2 -1/1/2
v 3 4 1
v 3 4 -1
v 3 5 1
v 3 5 -1
v 3 12 1
v 3 12 -1
v 3 13 1
v 3 13 -1
f -8/1/2 -7/1/2 -6/1/2
f -6/1/2 -7/1/2 -5/1/2
f -4/1/2 -3/1/2 -2/1/2
f -2/1/2 -3/1/2 -1/1/2
v 4 5 1
v 4 5 -1
v 4 12 1
v 4 12 -1
f -4/1/2 -3/1/2 -2/1/2
f -2/1/2 -3/1/2 -1/1/2
v -4 0 1
v -4 13 1
v -2 7 1
v -2 10 1
v -1 0 1
v -1 4 1
v 2 7 1
v 2 10 1
v 3 4 1
v 3 5 1
v 3 12 1
v 3 13 1
v 4 5 1
v 4 12 1
f -12/1/3 -13/1/3 -14/1/3
f -11/1/3 -13/1/3 -12/1/3
f -10/1/3 -12/1/3 -14/1/3
f -9/1/3 -12/1/3 -10/1/3
f -8/1/3 -12/1/3 -9/1/3
f -7/1/3 -13/1/3 -11/1/3
f -6/1/3 -8/1/3 -9/1/3
f -6/1/3 -7/1/3 -8/1/3
f -5/1/3 -7/1/3 -6/1/3
f -4/1/3 -13/1/3 -7/1/3
f -4/1/3 -7/1/3 -5/1/3
f -3/1/3 -13/1/3 -4/1/3
f -2/1/3 -4/1/3 -5/1/3
f -1/1/3 -4/1/3 -2/1/3
v -4 0 -1
v -4 13 -1
v -2 7 -1
v -2 10 -1
v -1 0 -1
v -1 4 -1
v 2 7 -1
v 2 10 -1
v 3 4 -1
v 3 5 -1
v 3 12 -1
v 3 13 -1
v 4 5 -1
v 4 12 -1
f -14/1/4 -13/1/4 -12/1/4
f -12/1/4 -13/1/4 -11/1/4
f -14/1/4 -12/1/4 -10/1/4
f -10/1/4 -12/1/4 -9/1/4
f -9/1/4 -12/1/4 -8/1/4
f -11/1/4 -13/1/4 -7/1/4
f -9/1/4 -8/1/4 -6/1/4
f -8/1/4 -7/1/4 -6/1/4
f -6/1/4 -7/1/4 -5/1/4
f -7/1/4 -13/1/4 -4/1/4
f -5/1/4 -7/1/4 -4/1/4
f -4/1/4 -13/1/4 -3/1/4
f -5/1/4 -4/1/4 -2/1/4
f -2/1/4 -4/1/4 -1/1/4
v -4 0 1
v -1 0 1
v -4 0 -1
v -1 0 -1
f -2/1/5 -3/1/5 -4/1/5
f -1/1/5 -3/1/5 -2/1/5
v -1 4 1
v 3 4 1
v -1 4 -1
v 3 4 -1
f -2/1/5 -3/1/5 -4/1/5
f -1/1/5 -3/1/5 -2/1/5
v 3 5 1
v 4 5 1
v 3 5 -1
v 4 5 -1
f -2/1/5 -3/1/5 -4/1/5
f -1/1/5 -3/1/5 -2/1/5
v -2 10 1
v 2 10 1
v -2 10 -1
v 2 10 -1
f -2/1/5 -3/1/5 -4/1/5
f -1/1/5 -3/1/5 -2/1/5
v -2 7 1
v 2 7 1
v -2 7 -1
v 2 7 -1
f -4/1/6 -3/1/6 -2/1/6
f -2/1/6 -3/1/6 -1/1/6
v 3 12 1
v 4 12 1
v 3 12 -1
v 4 12 -1
f -4/1/6 -3/1/6 -2/1/6
f -2/1/6 -3/1/6 -1/1/6
v -4 13 1
v 3 13 1
v -4 13 -1
v 3 13 -1
f -4/1/6 -3/1/6 -2/1/6
f -2/1/6 -3/1/6 -1/1/6
