# MagicaVoxel @ ephtracy

# material
mtllib doge2.mtl
usemtl palette

# normals
vn -1 0 0
vn 1 0 0
vn 0 0 1
vn 0 0 -1
vn 0 -1 0
vn 0 1 0

# texcoords
vt 0.0332031 0.5
vt 0.0644531 0.5
vt 0.201172 0.5
vt 0.958984 0.5
vt 0.962891 0.5
vt 0.994141 0.5

# verts and faces
v -4 0 3
v -4 0 -1
v -4 0 -5
v -4 0 -9
v -4 1 3
v -4 1 2
v -4 1 -5
v -4 1 -6
v -4 2 3
v -4 2 2
v -4 2 -1
v -4 2 -4
v -4 2 -6
v -4 2 -9
v -4 4 8
v -4 4 4
v -4 4 3
v -4 4 -1
v -4 4 -4
v -4 6 6
v -4 6 4
v -4 6 -1
v -4 6 -4
v -4 8 8
v -4 8 6
v -4 9 3
v -4 9 -9
v -4 12 8
v -4 12 6
v -4 12 4
v -4 12 3
v -4 14 6
v -4 14 4
f -29/1/1 -32/1/1 -33/1/1
f -28/1/1 -32/1/1 -29/1/1
f -27/1/1 -30/1/1 -31/1/1
f -26/1/1 -30/1/1 -27/1/1
f -24/1/1 -32/1/1 -28/1/1
f -23/1/1 -32/1/1 -24/1/1
f -21/1/1 -30/1/1 -26/1/1
f -20/1/1 -30/1/1 -21/1/1
f -17/2/1 -23/2/1 -24/2/1
f -17/2/1 -24/2/1 -25/2/1
f -16/2/1 -23/2/1 -17/2/1
f -15/2/1 -21/2/1 -22/2/1
f -15/2/1 -20/2/1 -21/2/1
f -14/1/1 -18/1/1 -19/1/1
f -13/2/1 -16/2/1 -17/2/1
f -13/1/1 -18/1/1 -14/1/1
f -13/2/1 -17/2/1 -18/2/1
f -12/1/1 -15/1/1 -16/1/1
f -12/2/1 -16/2/1 -13/2/1
f -11/2/1 -20/2/1 -15/2/1
f -11/1/1 -15/1/1 -12/1/1
f -10/1/1 -14/1/1 -19/1/1
f -9/2/1 -13/2/1 -14/2/1
f -9/1/1 -14/1/1 -10/1/1
f -9/2/1 -12/2/1 -13/2/1
f -9/2/1 -11/2/1 -12/2/1
f -8/2/1 -9/2/1 -10/2/1
f -8/2/1 -11/2/1 -9/2/1
f -7/2/1 -20/2/1 -11/2/1
f -7/2/1 -11/2/1 -8/2/1
f -6/2/1 -8/2/1 -10/2/1
f -5/2/1 -8/2/1 -6/2/1
f -4/2/1 -8/2/1 -5/2/1
f -3/2/1 -8/2/1 -4/2/1
f -2/2/1 -4/2/1 -5/2/1
f -1/2/1 -4/2/1 -2/2/1
v -3 5 9
v -3 5 8
v -3 7 10
v -3 7 9
v -3 8 10
v -3 8 8
v -3 10 10
v -3 10 8
f -5/3/1 -7/3/1 -8/3/1
f -4/3/1 -5/3/1 -6/3/1
f -3/3/1 -7/3/1 -5/3/1
f -3/3/1 -5/3/1 -4/3/1
f -2/2/1 -3/2/1 -4/2/1
f -1/2/1 -3/2/1 -2/2/1
v -2 2 2
v -2 2 -0
v -2 2 -6
v -2 2 -8
v -2 3 2
v -2 3 -0
v -2 3 -6
v -2 3 -8
v -2 4 -9
v -2 4 -11
v -2 9 -9
v -2 10 -9
v -2 10 -11
f -9/2/1 -12/2/1 -13/2/1
f -8/2/1 -12/2/1 -9/2/1
f -7/2/1 -10/2/1 -11/2/1
f -6/2/1 -10/2/1 -7/2/1
f -3/2/1 -4/2/1 -5/2/1
f -2/2/1 -4/2/1 -3/2/1
f -1/2/1 -4/2/1 -2/2/1
v -1 8 11
v -1 8 10
v -1 10 11
v -1 10 10
v -1 11 6
v -1 11 4
v -1 12 6
v -1 12 4
f -6/6/1 -7/6/1 -8/6/1
f -5/6/1 -7/6/1 -6/6/1
f -2/2/1 -3/2/1 -4/2/1
f -1/2/1 -3/2/1 -2/2/1
v 1 5 -9
v 1 5 -10
v 1 8 10
v 1 8 9
v 1 8 -9
v 1 9 10
v 1 9 9
v 1 9 -9
v 1 9 -10
v 1 12 6
v 1 12 4
v 1 14 6
v 1 14 4
f -9/2/1 -12/2/1 -13/2/1
f -8/2/1 -10/2/1 -11/2/1
f -7/2/1 -10/2/1 -8/2/1
f -6/2/1 -12/2/1 -9/2/1
f -5/2/1 -12/2/1 -6/2/1
f -2/2/1 -3/2/1 -4/2/1
f -1/2/1 -3/2/1 -2/2/1
v 2 0 3
v 2 0 -1
v 2 0 -5
v 2 0 -9
v 2 1 3
v 2 1 2
v 2 1 -5
v 2 1 -6
v 2 2 2
v 2 2 -1
v 2 2 -6
v 2 2 -9
v 2 4 -8
v 2 4 -9
v 2 7 9
v 2 7 8
v 2 8 9
v 2 8 8
v 2 8 -8
v 2 8 -9
v 2 9 9
v 2 9 8
f -18/1/1 -21/1/1 -22/1/1
f -17/1/1 -21/1/1 -18/1/1
f -16/1/1 -19/1/1 -20/1/1
f -15/1/1 -19/1/1 -16/1/1
f -14/1/1 -21/1/1 -17/1/1
f -13/1/1 -21/1/1 -14/1/1
f -12/1/1 -19/1/1 -15/1/1
f -11/1/1 -19/1/1 -12/1/1
f -6/3/1 -7/3/1 -8/3/1
f -5/3/1 -7/3/1 -6/3/1
f -4/2/1 -9/2/1 -10/2/1
f -3/2/1 -9/2/1 -4/2/1
f -2/2/1 -5/2/1 -6/2/1
f -1/2/1 -5/2/1 -2/2/1
v 3 2 2
v 3 2 -0
v 3 2 -6
v 3 2 -8
v 3 3 -5
v 3 3 -6
v 3 4 3
v 3 4 2
v 3 4 -0
v 3 4 -1
v 3 4 -4
v 3 4 -5
v 3 5 8
v 3 5 4
v 3 5 3
v 3 5 -1
v 3 5 -4
v 3 6 6
v 3 6 4
v 3 6 -1
v 3 6 -4
v 3 8 8
v 3 8 6
v 3 8 3
v 3 8 -8
v 3 9 4
v 3 9 3
v 3 10 8
v 3 10 7
v 3 11 7
v 3 11 6
v 3 12 6
v 3 12 5
v 3 12 4
f -29/2/1 -31/2/1 -32/2/1
f -27/2/1 -33/2/1 -34/2/1
f -26/2/1 -33/2/1 -27/2/1
f -23/2/1 -29/2/1 -30/2/1
f -20/2/1 -25/2/1 -26/2/1
f -20/2/1 -27/2/1 -28/2/1
f -20/2/1 -26/2/1 -27/2/1
f -19/2/1 -25/2/1 -20/2/1
f -18/2/1 -23/2/1 -24/2/1
f -17/1/1 -21/1/1 -22/1/1
f -16/2/1 -19/2/1 -20/2/1
f -16/1/1 -21/1/1 -17/1/1
f -16/2/1 -20/2/1 -21/2/1
f -15/1/1 -18/1/1 -19/1/1
f -15/2/1 -19/2/1 -16/2/1
f -14/2/1 -23/2/1 -18/2/1
f -14/1/1 -18/1/1 -15/1/1
f -13/1/1 -17/1/1 -22/1/1
f -12/2/1 -16/2/1 -17/2/1
f -12/1/1 -17/1/1 -13/1/1
f -12/2/1 -15/2/1 -16/2/1
f -12/2/1 -14/2/1 -15/2/1
f -11/2/1 -14/2/1 -12/2/1
f -10/2/1 -31/2/1 -29/2/1
f -10/2/1 -14/2/1 -11/2/1
f -10/2/1 -23/2/1 -14/2/1
f -10/2/1 -29/2/1 -23/2/1
f -9/2/1 -11/2/1 -12/2/1
f -9/2/1 -12/2/1 -13/2/1
f -8/2/1 -11/2/1 -9/2/1
f -7/2/1 -9/2/1 -13/2/1
f -6/2/1 -9/2/1 -7/2/1
f -5/2/1 -9/2/1 -6/2/1
f -4/2/1 -9/2/1 -5/2/1
f -3/2/1 -9/2/1 -4/2/1
f -2/2/1 -9/2/1 -3/2/1
f -1/2/1 -9/2/1 -2/2/1
v -3 2 2
v -3 2 -0
v -3 2 -6
v -3 2 -8
v -3 3 -5
v -3 3 -6
v -3 4 3
v -3 4 2
v -3 4 -0
v -3 4 -1
v -3 4 -4
v -3 4 -5
v -3 5 8
v -3 5 4
v -3 5 3
v -3 5 -1
v -3 5 -4
v -3 6 6
v -3 6 4
v -3 6 -1
v -3 6 -4
v -3 8 8
v -3 8 6
v -3 8 3
v -3 8 -8
v -3 9 4
v -3 9 3
v -3 10 8
v -3 10 7
v -3 11 7
v -3 11 6
v -3 12 6
v -3 12 5
v -3 12 4
f -32/2/2 -31/2/2 -29/2/2
f -34/2/2 -33/2/2 -27/2/2
f -27/2/2 -33/2/2 -26/2/2
f -30/2/2 -29/2/2 -23/2/2
f -26/2/2 -25/2/2 -20/2/2
f -28/2/2 -27/2/2 -20/2/2
f -27/2/2 -26/2/2 -20/2/2
f -20/2/2 -25/2/2 -19/2/2
f -24/2/2 -23/2/2 -18/2/2
f -22/1/2 -21/1/2 -17/1/2
f -20/2/2 -19/2/2 -16/2/2
f -17/1/2 -21/1/2 -16/1/2
f -21/2/2 -20/2/2 -16/2/2
f -19/1/2 -18/1/2 -15/1/2
f -16/2/2 -19/2/2 -15/2/2
f -18/2/2 -23/2/2 -14/2/2
f -15/1/2 -18/1/2 -14/1/2
f -22/1/2 -17/1/2 -13/1/2
f -17/2/2 -16/2/2 -12/2/2
f -13/1/2 -17/1/2 -12/1/2
f -16/2/2 -15/2/2 -12/2/2
f -15/2/2 -14/2/2 -12/2/2
f -12/2/2 -14/2/2 -11/2/2
f -29/2/2 -31/2/2 -10/2/2
f -11/2/2 -14/2/2 -10/2/2
f -14/2/2 -23/2/2 -10/2/2
f -23/2/2 -29/2/2 -10/2/2
f -12/2/2 -11/2/2 -9/2/2
f -13/2/2 -12/2/2 -9/2/2
f -9/2/2 -11/2/2 -8/2/2
f -13/2/2 -9/2/2 -7/2/2
f -7/2/2 -9/2/2 -6/2/2
f -6/2/2 -9/2/2 -5/2/2
f -5/2/2 -9/2/2 -4/2/2
f -4/2/2 -9/2/2 -3/2/2
f -3/2/2 -9/2/2 -2/2/2
f -2/2/2 -9/2/2 -1/2/2
v -2 0 3
v -2 0 -1
v -2 0 -5
v -2 0 -9
v -2 1 3
v -2 1 2
v -2 1 -5
v -2 1 -6
v -2 2 2
v -2 2 -1
v -2 2 -6
v -2 2 -9
v -2 4 -8
v -2 4 -9
v -2 7 9
v -2 7 8
v -2 8 9
v -2 8 8
v -2 8 -8
v -2 8 -9
v -2 9 9
v -2 9 8
f -22/1/2 -21/1/2 -18/1/2
f -18/1/2 -21/1/2 -17/1/2
f -20/1/2 -19/1/2 -16/1/2
f -16/1/2 -19/1/2 -15/1/2
f -17/1/2 -21/1/2 -14/1/2
f -14/1/2 -21/1/2 -13/1/2
f -15/1/2 -19/1/2 -12/1/2
f -12/1/2 -19/1/2 -11/1/2
f -8/3/2 -7/3/2 -6/3/2
f -6/3/2 -7/3/2 -5/3/2
f -10/2/2 -9/2/2 -4/2/2
f -4/2/2 -9/2/2 -3/2/2
f -6/2/2 -5/2/2 -2/2/2
f -2/2/2 -5/2/2 -1/2/2
v -1 5 -9
v -1 5 -10
v -1 8 10
v -1 8 9
v -1 8 -9
v -1 9 10
v -1 9 9
v -1 9 -9
v -1 9 -10
v -1 12 6
v -1 12 4
v -1 14 6
v -1 14 4
f -13/2/2 -12/2/2 -9/2/2
f -11/2/2 -10/2/2 -8/2/2
f -8/2/2 -10/2/2 -7/2/2
f -9/2/2 -12/2/2 -6/2/2
f -6/2/2 -12/2/2 -5/2/2
f -4/2/2 -3/2/2 -2/2/2
f -2/2/2 -3/2/2 -1/2/2
v 1 8 11
v 1 8 10
v 1 10 11
v 1 10 10
v 1 11 6
v 1 11 4
v 1 12 6
v 1 12 4
f -8/6/2 -7/6/2 -6/6/2
f -6/6/2 -7/6/2 -5/6/2
f -4/2/2 -3/2/2 -2/2/2
f -2/2/2 -3/2/2 -1/2/2
v 2 2 2
v 2 2 -0
v 2 2 -6
v 2 2 -8
v 2 3 2
v 2 3 -0
v 2 3 -6
v 2 3 -8
v 2 4 -9
v 2 4 -11
v 2 9 -9
v 2 10 -9
v 2 10 -11
f -13/2/2 -12/2/2 -9/2/2
f -9/2/2 -12/2/2 -8/2/2
f -11/2/2 -10/2/2 -7/2/2
f -7/2/2 -10/2/2 -6/2/2
f -5/2/2 -4/2/2 -3/2/2
f -3/2/2 -4/2/2 -2/2/2
f -2/2/2 -4/2/2 -1/2/2
v 3 5 9
v 3 5 8
v 3 7 10
v 3 7 9
v 3 8 10
v 3 8 8
v 3 10 10
v 3 10 8
f -8/3/2 -7/3/2 -5/3/2
f -6/3/2 -5/3/2 -4/3/2
f -5/3/2 -7/3/2 -3/3/2
f -4/3/2 -5/3/2 -3/3/2
f -4/2/2 -3/2/2 -2/2/2
f -2/2/2 -3/2/2 -1/2/2
v 4 0 3
v 4 0 -1
v 4 0 -5
v 4 0 -9
v 4 1 3
v 4 1 2
v 4 1 -5
v 4 1 -6
v 4 2 3
v 4 2 2
v 4 2 -1
v 4 2 -4
v 4 2 -6
v 4 2 -9
v 4 4 8
v 4 4 4
v 4 4 3
v 4 4 -1
v 4 4 -4
v 4 6 6
v 4 6 4
v 4 6 -1
v 4 6 -4
v 4 8 8
v 4 8 6
v 4 9 3
v 4 9 -9
v 4 12 8
v 4 12 6
v 4 12 4
v 4 12 3
v 4 14 6
v 4 14 4
f -33/1/2 -32/1/2 -29/1/2
f -29/1/2 -32/1/2 -28/1/2
f -31/1/2 -30/1/2 -27/1/2
f -27/1/2 -30/1/2 -26/1/2
f -28/1/2 -32/1/2 -24/1/2
f -24/1/2 -32/1/2 -23/1/2
f -26/1/2 -30/1/2 -21/1/2
f -21/1/2 -30/1/2 -20/1/2
f -24/2/2 -23/2/2 -17/2/2
f -25/2/2 -24/2/2 -17/2/2
f -17/2/2 -23/2/2 -16/2/2
f -22/2/2 -21/2/2 -15/2/2
f -21/2/2 -20/2/2 -15/2/2
f -19/1/2 -18/1/2 -14/1/2
f -17/2/2 -16/2/2 -13/2/2
f -14/1/2 -18/1/2 -13/1/2
f -18/2/2 -17/2/2 -13/2/2
f -16/1/2 -15/1/2 -12/1/2
f -13/2/2 -16/2/2 -12/2/2
f -15/2/2 -20/2/2 -11/2/2
f -12/1/2 -15/1/2 -11/1/2
f -19/1/2 -14/1/2 -10/1/2
f -14/2/2 -13/2/2 -9/2/2
f -10/1/2 -14/1/2 -9/1/2
f -13/2/2 -12/2/2 -9/2/2
f -12/2/2 -11/2/2 -9/2/2
f -10/2/2 -9/2/2 -8/2/2
f -9/2/2 -11/2/2 -8/2/2
f -11/2/2 -20/2/2 -7/2/2
f -8/2/2 -11/2/2 -7/2/2
f -10/2/2 -8/2/2 -6/2/2
f -6/2/2 -8/2/2 -5/2/2
f -5/2/2 -8/2/2 -4/2/2
f -4/2/2 -8/2/2 -3/2/2
f -5/2/2 -4/2/2 -2/2/2
f -2/2/2 -4/2/2 -1/2/2
v -1 8 11
v -1 10 11
v 1 8 11
v 1 10 11
f -2/6/3 -3/6/3 -4/6/3
f -1/6/3 -3/6/3 -2/6/3
v -3 7 10
v -3 8 10
v -3 10 10
v -1 7 10
v -1 8 10
v -1 10 10
v 1 7 10
v 1 8 10
v 1 10 10
v 3 7 10
v 3 8 10
v 3 10 10
f -9/3/3 -11/3/3 -12/3/3
f -8/2/3 -10/2/3 -11/2/3
f -8/3/3 -11/3/3 -9/3/3
f -7/2/3 -10/2/3 -8/2/3
f -6/6/3 -8/6/3 -9/6/3
f -5/6/3 -8/6/3 -6/6/3
f -3/3/3 -5/3/3 -6/3/3
f -2/2/3 -4/2/3 -5/2/3
f -2/3/3 -5/3/3 -3/3/3
f -1/2/3 -4/2/3 -2/2/3
v -3 5 9
v -3 7 9
v -2 6 9
v -2 7 9
v -1 7 9
v 1 7 9
v 2 6 9
v 2 7 9
v 3 5 9
v 3 7 9
f -8/3/3 -9/3/3 -10/3/3
f -7/3/3 -9/3/3 -8/3/3
f -6/1/3 -7/1/3 -8/1/3
f -5/1/3 -6/1/3 -8/1/3
f -4/3/3 -8/3/3 -10/3/3
f -4/1/3 -5/1/3 -8/1/3
f -3/1/3 -5/1/3 -4/1/3
f -2/3/3 -4/3/3 -10/3/3
f -2/3/3 -3/3/3 -4/3/3
f -1/3/3 -3/3/3 -2/3/3
v -4 4 8
v -4 8 8
v -4 12 8
v -3 5 8
v -3 8 8
v -3 10 8
v -3 11 8
v -2 10 8
v -2 11 8
v -1 10 8
v -1 11 8
v 1 10 8
v 1 11 8
v 2 10 8
v 2 11 8
v 3 5 8
v 3 8 8
v 3 10 8
v 3 11 8
v 4 4 8
v 4 8 8
v 4 12 8
f -19/1/3 -21/1/3 -22/1/3
f -18/2/3 -20/2/3 -21/2/3
f -18/1/3 -21/1/3 -19/1/3
f -17/2/3 -20/2/3 -18/2/3
f -16/2/3 -20/2/3 -17/2/3
f -15/4/3 -16/4/3 -17/4/3
f -14/2/3 -20/2/3 -16/2/3
f -14/4/3 -16/4/3 -15/4/3
f -13/6/3 -14/6/3 -15/6/3
f -12/2/3 -20/2/3 -14/2/3
f -12/6/3 -14/6/3 -13/6/3
f -11/2/3 -12/2/3 -13/2/3
f -10/2/3 -20/2/3 -12/2/3
f -10/2/3 -12/2/3 -11/2/3
f -9/5/3 -10/5/3 -11/5/3
f -8/2/3 -20/2/3 -10/2/3
f -8/5/3 -10/5/3 -9/5/3
f -7/1/3 -19/1/3 -22/1/3
f -5/6/3 -8/6/3 -9/6/3
f -4/2/3 -20/2/3 -8/2/3
f -4/6/3 -8/6/3 -5/6/3
f -3/1/3 -6/1/3 -7/1/3
f -3/1/3 -7/1/3 -22/1/3
f -2/2/3 -5/2/3 -6/2/3
f -2/1/3 -6/1/3 -3/1/3
f -2/2/3 -4/2/3 -5/2/3
f -1/2/3 -20/2/3 -4/2/3
f -1/2/3 -4/2/3 -2/2/3
v -4 12 6
v -4 14 6
v -3 12 6
v -3 13 6
v -2 12 6
v -2 13 6
v -1 12 6
v -1 14 6
v 1 12 6
v 1 14 6
v 2 12 6
v 2 13 6
v 3 12 6
v 3 13 6
v 4 12 6
v 4 14 6
f -14/2/3 -15/2/3 -16/2/3
f -13/2/3 -15/2/3 -14/2/3
f -12/1/3 -13/1/3 -14/1/3
f -11/2/3 -15/2/3 -13/2/3
f -11/1/3 -13/1/3 -12/1/3
f -10/2/3 -11/2/3 -12/2/3
f -9/2/3 -15/2/3 -11/2/3
f -9/2/3 -11/2/3 -10/2/3
f -6/2/3 -7/2/3 -8/2/3
f -5/2/3 -7/2/3 -6/2/3
f -4/1/3 -5/1/3 -6/1/3
f -3/2/3 -7/2/3 -5/2/3
f -3/1/3 -5/1/3 -4/1/3
f -2/2/3 -3/2/3 -4/2/3
f -1/2/3 -7/2/3 -3/2/3
f -1/2/3 -3/2/3 -2/2/3
v -3 9 4
v -3 12 4
v -1 11 4
v -1 12 4
v 1 11 4
v 1 12 4
v 3 9 4
v 3 12 4
f -6/2/3 -7/2/3 -8/2/3
f -5/2/3 -7/2/3 -6/2/3
f -4/2/3 -6/2/3 -8/2/3
f -2/2/3 -4/2/3 -8/2/3
f -2/2/3 -3/2/3 -4/2/3
f -1/2/3 -3/2/3 -2/2/3
v -4 0 3
v -4 1 3
v -4 2 3
v -4 4 3
v -3 8 3
v -3 9 3
v -2 0 3
v -2 1 3
v 2 0 3
v 2 1 3
v 3 8 3
v 3 9 3
v 4 0 3
v 4 1 3
v 4 2 3
v 4 4 3
f -10/1/3 -15/1/3 -16/1/3
f -9/1/3 -15/1/3 -10/1/3
f -6/2/3 -11/2/3 -12/2/3
f -5/2/3 -11/2/3 -6/2/3
f -4/1/3 -7/1/3 -8/1/3
f -3/1/3 -7/1/3 -4/1/3
f -2/2/3 -13/2/3 -14/2/3
f -1/2/3 -13/2/3 -2/2/3
v -4 1 2
v -4 2 2
v -2 1 2
v -2 2 2
v 2 1 2
v 2 2 2
v 4 1 2
v 4 2 2
f -6/1/3 -7/1/3 -8/1/3
f -5/1/3 -7/1/3 -6/1/3
f -2/1/3 -3/1/3 -4/1/3
f -1/1/3 -3/1/3 -2/1/3
v -3 2 -0
v -3 4 -0
v -2 2 -0
v -2 3 -0
v 2 2 -0
v 2 3 -0
v 3 2 -0
v 3 4 -0
f -6/2/3 -7/2/3 -8/2/3
f -5/2/3 -7/2/3 -6/2/3
f -3/2/3 -7/2/3 -5/2/3
f -2/2/3 -3/2/3 -4/2/3
f -1/2/3 -7/2/3 -3/2/3
f -1/2/3 -3/2/3 -2/2/3
v -3 4 -1
v -3 5 -1
v 3 4 -1
v 3 5 -1
f -2/1/3 -3/1/3 -4/1/3
f -1/1/3 -3/1/3 -2/1/3
v -4 2 -4
v -4 4 -4
v 4 2 -4
v 4 4 -4
f -2/2/3 -3/2/3 -4/2/3
f -1/2/3 -3/2/3 -2/2/3
v -4 0 -5
v -4 1 -5
v -2 0 -5
v -2 1 -5
v 2 0 -5
v 2 1 -5
v 4 0 -5
v 4 1 -5
f -6/1/3 -7/1/3 -8/1/3
f -5/1/3 -7/1/3 -6/1/3
f -2/1/3 -3/1/3 -4/1/3
f -1/1/3 -3/1/3 -2/1/3
v -4 1 -6
v -4 2 -6
v -2 1 -6
v -2 2 -6
v 2 1 -6
v 2 2 -6
v 4 1 -6
v 4 2 -6
f -6/1/3 -7/1/3 -8/1/3
f -5/1/3 -7/1/3 -6/1/3
f -2/1/3 -3/1/3 -4/1/3
f -1/1/3 -3/1/3 -2/1/3
v -3 2 -8
v -3 8 -8
v -2 2 -8
v -2 3 -8
v -2 4 -8
v -2 8 -8
v 2 2 -8
v 2 3 -8
v 2 4 -8
v 2 8 -8
v 3 2 -8
v 3 8 -8
f -10/2/3 -11/2/3 -12/2/3
f -9/2/3 -11/2/3 -10/2/3
f -8/2/3 -11/2/3 -9/2/3
f -7/2/3 -11/2/3 -8/2/3
f -5/2/3 -8/2/3 -9/2/3
f -4/2/3 -8/2/3 -5/2/3
f -2/2/3 -5/2/3 -6/2/3
f -2/2/3 -3/2/3 -4/2/3
f -2/2/3 -4/2/3 -5/2/3
f -1/2/3 -3/2/3 -2/2/3
v -2 4 -9
v -2 8 -9
v -2 9 -9
v -2 10 -9
v -1 5 -9
v -1 8 -9
v 1 5 -9
v 1 8 -9
v 2 4 -9
v 2 8 -9
v 2 9 -9
v 2 10 -9
f -8/2/3 -11/2/3 -12/2/3
f -7/2/3 -11/2/3 -8/2/3
f -6/2/3 -8/2/3 -12/2/3
f -4/2/3 -6/2/3 -12/2/3
f -4/2/3 -5/2/3 -6/2/3
f -3/2/3 -5/2/3 -4/2/3
f -2/2/3 -9/2/3 -10/2/3
f -1/2/3 -9/2/3 -2/2/3
v -1 5 -10
v -1 9 -10
v 1 5 -10
v 1 9 -10
f -2/2/3 -3/2/3 -4/2/3
f -1/2/3 -3/2/3 -2/2/3
v -1 8 10
v -1 9 10
v 1 8 10
v 1 9 10
f -4/6/4 -3/6/4 -2/6/4
f -2/6/4 -3/6/4 -1/6/4
v -2 7 9
v -2 8 9
v -2 9 9
v -1 7 9
v -1 8 9
v -1 9 9
v 1 7 9
v 1 8 9
v 1 9 9
v 2 7 9
v 2 8 9
v 2 9 9
f -12/3/4 -11/3/4 -9/3/4
f -11/2/4 -10/2/4 -8/2/4
f -9/3/4 -11/3/4 -8/3/4
f -8/2/4 -10/2/4 -7/2/4
f -9/6/4 -8/6/4 -6/6/4
f -6/6/4 -8/6/4 -5/6/4
f -6/3/4 -5/3/4 -3/3/4
f -5/2/4 -4/2/4 -2/2/4
f -3/3/4 -5/3/4 -2/3/4
f -2/2/4 -4/2/4 -1/2/4
v -3 5 8
v -3 8 8
v -3 10 8
v -2 6 8
v -2 7 8
v -2 8 8
v -2 9 8
v -2 10 8
v -1 10 8
v 1 10 8
v 2 6 8
v 2 7 8
v 2 8 8
v 2 9 8
v 2 10 8
v 3 5 8
v 3 8 8
v 3 10 8
f -18/3/4 -17/3/4 -15/3/4
f -15/3/4 -17/3/4 -14/3/4
f -17/2/4 -16/2/4 -13/2/4
f -14/3/4 -17/3/4 -13/3/4
f -13/2/4 -16/2/4 -12/2/4
f -12/2/4 -16/2/4 -11/2/4
f -12/2/4 -11/2/4 -10/2/4
f -12/2/4 -10/2/4 -9/2/4
f -15/1/4 -14/1/4 -8/1/4
f -18/3/4 -15/3/4 -8/3/4
f -8/1/4 -14/1/4 -7/1/4
f -12/2/4 -9/2/4 -5/2/4
f -5/2/4 -9/2/4 -4/2/4
f -7/3/4 -6/3/4 -3/3/4
f -18/3/4 -8/3/4 -3/3/4
f -8/3/4 -7/3/4 -3/3/4
f -5/2/4 -4/2/4 -2/2/4
f -3/3/4 -6/3/4 -2/3/4
f -6/2/4 -5/2/4 -2/2/4
f -2/2/4 -4/2/4 -1/2/4
v -3 10 7
v -3 11 7
v -2 10 7
v -2 11 7
v -1 10 7
v -1 11 7
v 1 10 7
v 1 11 7
v 2 10 7
v 2 11 7
v 3 10 7
v 3 11 7
f -12/4/4 -11/4/4 -10/4/4
f -10/4/4 -11/4/4 -9/4/4
f -10/6/4 -9/6/4 -8/6/4
f -8/6/4 -9/6/4 -7/6/4
f -8/2/4 -7/2/4 -6/2/4
f -6/2/4 -7/2/4 -5/2/4
f -6/5/4 -5/5/4 -4/5/4
f -4/5/4 -5/5/4 -3/5/4
f -4/6/4 -3/6/4 -2/6/4
f -2/6/4 -3/6/4 -1/6/4
v -3 11 6
v -3 12 6
v -2 12 6
v -1 11 6
v -1 12 6
v 1 11 6
v 1 12 6
v 2 12 6
v 3 11 6
v 3 12 6
f -10/2/4 -9/2/4 -8/2/4
f -10/2/4 -8/2/4 -7/2/4
f -7/2/4 -8/2/4 -6/2/4
f -5/2/4 -4/2/4 -3/2/4
f -5/2/4 -3/2/4 -2/2/4
f -2/2/4 -3/2/4 -1/2/4
v -4 12 4
v -4 14 4
v -1 12 4
v -1 14 4
v 1 12 4
v 1 14 4
v 4 12 4
v 4 14 4
f -8/2/4 -7/2/4 -6/2/4
f -6/2/4 -7/2/4 -5/2/4
f -4/2/4 -3/2/4 -2/2/4
f -2/2/4 -3/2/4 -1/2/4
v -4 9 3
v -4 12 3
v -3 4 3
v -3 5 3
v 3 4 3
v 3 5 3
v 4 9 3
v 4 12 3
f -6/2/4 -5/2/4 -4/2/4
f -4/2/4 -5/2/4 -3/2/4
f -8/2/4 -7/2/4 -2/2/4
f -2/2/4 -7/2/4 -1/2/4
v -3 2 2
v -3 4 2
v -2 2 2
v -2 3 2
v 2 2 2
v 2 3 2
v 3 2 2
v 3 4 2
f -8/2/4 -7/2/4 -6/2/4
f -6/2/4 -7/2/4 -5/2/4
f -5/2/4 -7/2/4 -3/2/4
f -4/2/4 -3/2/4 -2/2/4
f -3/2/4 -7/2/4 -1/2/4
f -2/2/4 -3/2/4 -1/2/4
v -4 0 -1
v -4 2 -1
v -4 4 -1
v -2 0 -1
v -2 2 -1
v 2 0 -1
v 2 2 -1
v 4 0 -1
v 4 2 -1
v 4 4 -1
f -10/1/4 -9/1/4 -7/1/4
f -9/2/4 -8/2/4 -6/2/4
f -7/1/4 -9/1/4 -6/1/4
f -6/2/4 -8/2/4 -4/2/4
f -5/1/4 -4/1/4 -3/1/4
f -4/2/4 -8/2/4 -2/2/4
f -3/1/4 -4/1/4 -2/1/4
f -2/2/4 -8/2/4 -1/2/4
v -3 4 -4
v -3 5 -4
v 3 4 -4
v 3 5 -4
f -4/1/4 -3/1/4 -2/1/4
f -2/1/4 -3/1/4 -1/1/4
v -3 3 -5
v -3 4 -5
v 3 3 -5
v 3 4 -5
f -4/2/4 -3/2/4 -2/2/4
f -2/2/4 -3/2/4 -1/2/4
v -3 2 -6
v -3 3 -6
v -2 2 -6
v -2 3 -6
v 2 2 -6
v 2 3 -6
v 3 2 -6
v 3 3 -6
f -8/2/4 -7/2/4 -6/2/4
f -6/2/4 -7/2/4 -5/2/4
f -4/2/4 -3/2/4 -2/2/4
f -2/2/4 -3/2/4 -1/2/4
v -4 0 -9
v -4 2 -9
v -4 9 -9
v -2 0 -9
v -2 2 -9
v -2 4 -9
v -2 9 -9
v -1 8 -9
v -1 9 -9
v 1 8 -9
v 1 9 -9
v 2 0 -9
v 2 2 -9
v 2 4 -9
v 2 9 -9
v 4 0 -9
v 4 2 -9
v 4 9 -9
f -18/1/4 -17/1/4 -15/1/4
f -17/2/4 -16/2/4 -14/2/4
f -15/1/4 -17/1/4 -14/1/4
f -14/2/4 -16/2/4 -13/2/4
f -13/2/4 -16/2/4 -12/2/4
f -11/2/4 -10/2/4 -9/2/4
f -9/2/4 -10/2/4 -8/2/4
f -14/2/4 -13/2/4 -6/2/4
f -6/2/4 -13/2/4 -5/2/4
f -7/1/4 -6/1/4 -3/1/4
f -5/2/4 -4/2/4 -2/2/4
f -3/1/4 -6/1/4 -2/1/4
f -6/2/4 -5/2/4 -2/2/4
f -2/2/4 -4/2/4 -1/2/4
v -2 4 -11
v -2 10 -11
v 2 4 -11
v 2 10 -11
f -4/2/4 -3/2/4 -2/2/4
f -2/2/4 -3/2/4 -1/2/4
v -4 0 3
v -2 0 3
v 2 0 3
v 4 0 3
v -4 0 -1
v -2 0 -1
v 2 0 -1
v 4 0 -1
v -4 0 -5
v -2 0 -5
v 2 0 -5
v 4 0 -5
v -4 0 -9
v -2 0 -9
v 2 0 -9
v 4 0 -9
f -12/1/5 -15/1/5 -16/1/5
f -11/1/5 -15/1/5 -12/1/5
f -10/1/5 -13/1/5 -14/1/5
f -9/1/5 -13/1/5 -10/1/5
f -4/1/5 -7/1/5 -8/1/5
f -3/1/5 -7/1/5 -4/1/5
f -2/1/5 -5/1/5 -6/1/5
f -1/1/5 -5/1/5 -2/1/5
v -4 2 3
v 4 2 3
v -4 2 2
v -2 2 2
v 2 2 2
v 4 2 2
v -2 2 -1
v 2 2 -1
v -4 2 -4
v 4 2 -4
v -4 2 -6
v -2 2 -6
v 2 2 -6
v 4 2 -6
v -2 2 -9
v 2 2 -9
f -14/2/5 -15/2/5 -16/2/5
f -13/2/5 -15/2/5 -14/2/5
f -12/2/5 -15/2/5 -13/2/5
f -11/2/5 -15/2/5 -12/2/5
f -10/2/5 -12/2/5 -13/2/5
f -9/2/5 -12/2/5 -10/2/5
f -6/2/5 -7/2/5 -8/2/5
f -5/2/5 -7/2/5 -6/2/5
f -4/2/5 -7/2/5 -5/2/5
f -3/2/5 -7/2/5 -4/2/5
f -2/2/5 -4/2/5 -5/2/5
f -1/2/5 -4/2/5 -2/2/5
v -4 4 8
v 4 4 8
v -4 4 4
v 4 4 4
v -4 4 3
v 4 4 3
v -4 4 -1
v 4 4 -1
v -4 4 -4
v 4 4 -4
v -2 4 -9
v 2 4 -9
v -2 4 -11
v 2 4 -11
f -12/1/5 -13/1/5 -14/1/5
f -11/1/5 -13/1/5 -12/1/5
f -10/2/5 -11/2/5 -12/2/5
f -9/2/5 -11/2/5 -10/2/5
f -6/1/5 -7/1/5 -8/1/5
f -5/1/5 -7/1/5 -6/1/5
f -2/2/5 -3/2/5 -4/2/5
f -1/2/5 -3/2/5 -2/2/5
v -3 5 9
v 3 5 9
v -3 5 8
v 3 5 8
f -2/3/5 -3/3/5 -4/3/5
f -1/3/5 -3/3/5 -2/3/5
v -3 7 10
v -1 7 10
v 1 7 10
v 3 7 10
v -3 7 9
v -2 7 9
v -1 7 9
v 1 7 9
v 2 7 9
v 3 7 9
f -6/3/5 -9/3/5 -10/3/5
f -5/3/5 -9/3/5 -6/3/5
f -4/6/5 -8/6/5 -9/6/5
f -4/3/5 -9/3/5 -5/3/5
f -3/3/5 -7/3/5 -8/3/5
f -3/6/5 -8/6/5 -4/6/5
f -2/3/5 -7/3/5 -3/3/5
f -1/3/5 -7/3/5 -2/3/5
v -1 8 11
v 1 8 11
v -1 8 10
v 1 8 10
v -3 8 3
v 3 8 3
v -3 8 -8
v -2 8 -8
v 2 8 -8
v 3 8 -8
v -2 8 -9
v -1 8 -9
v 1 8 -9
v 2 8 -9
f -12/6/5 -13/6/5 -14/6/5
f -11/6/5 -13/6/5 -12/6/5
f -8/2/5 -9/2/5 -10/2/5
f -7/2/5 -9/2/5 -8/2/5
f -6/2/5 -9/2/5 -7/2/5
f -5/2/5 -9/2/5 -6/2/5
f -4/2/5 -6/2/5 -7/2/5
f -3/2/5 -6/2/5 -4/2/5
f -2/2/5 -6/2/5 -3/2/5
f -1/2/5 -6/2/5 -2/2/5
v -1 9 10
v 1 9 10
v -2 9 9
v -1 9 9
v 1 9 9
v 2 9 9
v -2 9 8
v 2 9 8
v -3 9 4
v 3 9 4
v -3 9 3
v 3 9 3
v -1 9 -9
v 1 9 -9
v -1 9 -10
v 1 9 -10
f -13/2/5 -15/2/5 -16/2/5
f -12/2/5 -15/2/5 -13/2/5
f -10/2/5 -13/2/5 -14/2/5
f -10/2/5 -11/2/5 -12/2/5
f -10/2/5 -12/2/5 -13/2/5
f -9/2/5 -11/2/5 -10/2/5
f -6/2/5 -7/2/5 -8/2/5
f -5/2/5 -7/2/5 -6/2/5
f -2/2/5 -3/2/5 -4/2/5
f -1/2/5 -3/2/5 -2/2/5
v -3 10 8
v -2 10 8
v -1 10 8
v 1 10 8
v 2 10 8
v 3 10 8
v -3 10 7
v -2 10 7
v -1 10 7
v 1 10 7
v 2 10 7
v 3 10 7
f -6/4/5 -11/4/5 -12/4/5
f -5/6/5 -10/6/5 -11/6/5
f -5/4/5 -11/4/5 -6/4/5
f -4/2/5 -9/2/5 -10/2/5
f -4/6/5 -10/6/5 -5/6/5
f -3/5/5 -8/5/5 -9/5/5
f -3/2/5 -9/2/5 -4/2/5
f -2/6/5 -7/6/5 -8/6/5
f -2/5/5 -8/5/5 -3/5/5
f -1/6/5 -7/6/5 -2/6/5
v -3 11 7
v -2 11 7
v -1 11 7
v 1 11 7
v 2 11 7
v 3 11 7
v -3 11 6
v -1 11 6
v 1 11 6
v 3 11 6
v -1 11 4
v 1 11 4
f -6/2/5 -11/2/5 -12/2/5
f -6/2/5 -7/2/5 -8/2/5
f -6/2/5 -8/2/5 -9/2/5
f -6/2/5 -9/2/5 -10/2/5
f -6/2/5 -10/2/5 -11/2/5
f -5/2/5 -7/2/5 -6/2/5
f -4/2/5 -7/2/5 -5/2/5
f -3/2/5 -7/2/5 -4/2/5
f -2/2/5 -4/2/5 -5/2/5
f -1/2/5 -4/2/5 -2/2/5
v -3 12 6
v -2 12 6
v -1 12 6
v 1 12 6
v 2 12 6
v 3 12 6
v -3 12 5
v -2 12 5
v 2 12 5
v 3 12 5
v -3 12 4
v -1 12 4
v 1 12 4
v 3 12 4
f -8/1/5 -13/1/5 -14/1/5
f -7/2/5 -12/2/5 -13/2/5
f -7/1/5 -13/1/5 -8/1/5
f -6/1/5 -9/1/5 -10/1/5
f -6/2/5 -10/2/5 -11/2/5
f -5/1/5 -9/1/5 -6/1/5
f -4/2/5 -7/2/5 -8/2/5
f -3/2/5 -12/2/5 -7/2/5
f -3/2/5 -7/2/5 -4/2/5
f -2/2/5 -6/2/5 -11/2/5
f -2/2/5 -5/2/5 -6/2/5
f -1/2/5 -5/2/5 -2/2/5
v -4 1 3
v -2 1 3
v 2 1 3
v 4 1 3
v -4 1 2
v -2 1 2
v 2 1 2
v 4 1 2
v -4 1 -5
v -2 1 -5
v 2 1 -5
v 4 1 -5
v -4 1 -6
v -2 1 -6
v 2 1 -6
v 4 1 -6
f -16/1/6 -15/1/6 -12/1/6
f -12/1/6 -15/1/6 -11/1/6
f -14/1/6 -13/1/6 -10/1/6
f -10/1/6 -13/1/6 -9/1/6
f -8/1/6 -7/1/6 -4/1/6
f -4/1/6 -7/1/6 -3/1/6
f -6/1/6 -5/1/6 -2/1/6
f -2/1/6 -5/1/6 -1/1/6
v -3 2 2
v -2 2 2
v 2 2 2
v 3 2 2
v -3 2 -0
v -2 2 -0
v 2 2 -0
v 3 2 -0
v -3 2 -6
v -2 2 -6
v 2 2 -6
v 3 2 -6
v -3 2 -8
v -2 2 -8
v 2 2 -8
v 3 2 -8
f -16/1/6 -15/1/6 -12/1/6
f -12/1/6 -15/1/6 -11/1/6
f -14/1/6 -13/1/6 -10/1/6
f -10/1/6 -13/1/6 -9/1/6
f -8/1/6 -7/1/6 -4/1/6
f -4/1/6 -7/1/6 -3/1/6
f -6/1/6 -5/1/6 -2/1/6
f -2/1/6 -5/1/6 -1/1/6
v -2 3 2
v 2 3 2
v -2 3 -0
v 2 3 -0
v -3 3 -5
v 3 3 -5
v -3 3 -6
v -2 3 -6
v 2 3 -6
v 3 3 -6
v -2 3 -8
v 2 3 -8
f -12/2/6 -11/2/6 -10/2/6
f -10/2/6 -11/2/6 -9/2/6
f -8/2/6 -7/2/6 -6/2/6
f -6/2/6 -7/2/6 -5/2/6
f -5/2/6 -7/2/6 -4/2/6
f -4/2/6 -7/2/6 -3/2/6
f -5/2/6 -4/2/6 -2/2/6
f -2/2/6 -4/2/6 -1/2/6
v -3 4 3
v 3 4 3
v -3 4 2
v 3 4 2
v -3 4 -0
v 3 4 -0
v -3 4 -1
v 3 4 -1
v -3 4 -4
v 3 4 -4
v -3 4 -5
v 3 4 -5
v -2 4 -8
v 2 4 -8
v -2 4 -9
v 2 4 -9
f -16/2/6 -15/2/6 -14/2/6
f -14/2/6 -15/2/6 -13/2/6
f -12/2/6 -11/2/6 -10/2/6
f -10/2/6 -11/2/6 -9/2/6
f -8/2/6 -7/2/6 -6/2/6
f -6/2/6 -7/2/6 -5/2/6
f -4/2/6 -3/2/6 -2/2/6
f -2/2/6 -3/2/6 -1/2/6
v -3 5 8
v 3 5 8
v -3 5 4
v 3 5 4
v -3 5 3
v 3 5 3
v -3 5 -1
v 3 5 -1
v -3 5 -4
v 3 5 -4
v -1 5 -9
v 1 5 -9
v -1 5 -10
v 1 5 -10
f -14/1/6 -13/1/6 -12/1/6
f -12/1/6 -13/1/6 -11/1/6
f -12/2/6 -11/2/6 -10/2/6
f -10/2/6 -11/2/6 -9/2/6
f -8/1/6 -7/1/6 -6/1/6
f -6/1/6 -7/1/6 -5/1/6
f -4/2/6 -3/2/6 -2/2/6
f -2/2/6 -3/2/6 -1/2/6
v -2 7 9
v -1 7 9
v 1 7 9
v 2 7 9
v -2 7 8
v 2 7 8
f -6/1/6 -5/1/6 -2/1/6
f -4/1/6 -3/1/6 -2/1/6
f -5/1/6 -4/1/6 -2/1/6
f -2/1/6 -3/1/6 -1/1/6
v -1 8 10
v 1 8 10
v -1 8 9
v 1 8 9
f -4/6/6 -3/6/6 -2/6/6
f -2/6/6 -3/6/6 -1/6/6
v -4 9 3
v 4 9 3
v -4 9 -9
v -2 9 -9
v 2 9 -9
v 4 9 -9
f -6/2/6 -5/2/6 -4/2/6
f -4/2/6 -5/2/6 -3/2/6
f -3/2/6 -5/2/6 -2/2/6
f -2/2/6 -5/2/6 -1/2/6
v -1 10 11
v 1 10 11
v -3 10 10
v -1 10 10
v 1 10 10
v 3 10 10
v -3 10 8
v -2 10 8
v -1 10 8
v 1 10 8
v 2 10 8
v 3 10 8
v -2 10 -9
v 2 10 -9
v -2 10 -11
v 2 10 -11
f -16/6/6 -15/6/6 -13/6/6
f -13/6/6 -15/6/6 -12/6/6
f -14/2/6 -13/2/6 -10/2/6
f -12/2/6 -11/2/6 -10/2/6
f -13/2/6 -12/2/6 -10/2/6
f -10/2/6 -11/2/6 -9/2/6
f -9/2/6 -11/2/6 -8/2/6
f -8/2/6 -11/2/6 -7/2/6
f -7/2/6 -11/2/6 -6/2/6
f -6/2/6 -11/2/6 -5/2/6
f -4/2/6 -3/2/6 -2/2/6
f -2/2/6 -3/2/6 -1/2/6
v -4 12 8
v 4 12 8
v -4 12 6
v -3 12 6
v -2 12 6
v -1 12 6
v 1 12 6
v 2 12 6
v 3 12 6
v 4 12 6
v -4 12 4
v -1 12 4
v 1 12 4
v 4 12 4
v -4 12 3
v 4 12 3
f -16/2/6 -15/2/6 -14/2/6
f -14/2/6 -15/2/6 -13/2/6
f -13/2/6 -15/2/6 -12/2/6
f -12/2/6 -15/2/6 -11/2/6
f -11/2/6 -15/2/6 -10/2/6
f -10/2/6 -15/2/6 -9/2/6
f -9/2/6 -15/2/6 -8/2/6
f -8/2/6 -15/2/6 -7/2/6
f -11/2/6 -10/2/6 -5/2/6
f -5/2/6 -10/2/6 -4/2/6
f -6/2/6 -5/2/6 -2/2/6
f -4/2/6 -3/2/6 -2/2/6
f -5/2/6 -4/2/6 -2/2/6
f -2/2/6 -3/2/6 -1/2/6
v -4 14 6
v -1 14 6
v 1 14 6
v 4 14 6
v -4 14 4
v -1 14 4
v 1 14 4
v 4 14 4
f -8/2/6 -7/2/6 -4/2/6
f -4/2/6 -7/2/6 -3/2/6
f -6/2/6 -5/2/6 -2/2/6
f -2/2/6 -5/2/6 -1/2/6
