# MagicaVoxel @ ephtracy

# material
mtllib penguin.mtl
usemtl palette

# normals
vn -1 0 0
vn 1 0 0
vn 0 0 1
vn 0 0 -1
vn 0 -1 0
vn 0 1 0

# texcoords
vt 0.0214844 0.5
vt 0.857422 0.5
vt 0.939453 0.5
vt 0.958984 0.5
vt 0.994141 0.5

# verts and faces
v -4 4 0.5
v -4 4 -0.5
v -4 7 0.5
v -4 7 -0.5
f -2/3/1 -3/3/1 -4/3/1
f -1/3/1 -3/3/1 -2/3/1
v -3 1 1.5
v -3 1 -1.5
v -3 2 2.5
v -3 2 1.5
v -3 2 -1.5
v -3 2 -2.5
v -3 4 0.5
v -3 4 -0.5
v -3 7 2.5
v -3 7 0.5
v -3 7 -0.5
v -3 7 -1.5
v -3 7 -2.5
v -3 8 2.5
v -3 8 -0.5
v -3 8 -2.5
v -3 9 1.5
v -3 9 -0.5
v -3 11 2.5
v -3 11 1.5
v -3 13 2.5
v -3 13 -2.5
f -19/4/1 -21/4/1 -22/4/1
f -18/4/1 -21/4/1 -19/4/1
f -16/4/1 -19/4/1 -20/4/1
f -16/4/1 -18/4/1 -19/4/1
f -15/4/1 -18/4/1 -16/4/1
f -14/4/1 -16/4/1 -20/4/1
f -13/4/1 -16/4/1 -14/4/1
f -12/4/1 -18/4/1 -15/4/1
f -11/3/1 -17/3/1 -18/3/1
f -11/4/1 -18/4/1 -12/4/1
f -10/3/1 -17/3/1 -11/3/1
f -9/2/1 -12/2/1 -13/2/1
f -9/2/1 -13/2/1 -14/2/1
f -9/2/1 -10/2/1 -11/2/1
f -9/2/1 -11/2/1 -12/2/1
f -8/2/1 -10/2/1 -9/2/1
f -7/2/1 -10/2/1 -8/2/1
f -6/4/1 -8/4/1 -9/4/1
f -5/3/1 -7/3/1 -8/3/1
f -5/4/1 -8/4/1 -6/4/1
f -4/4/1 -6/4/1 -9/4/1
f -3/3/1 -5/3/1 -6/3/1
f -3/4/1 -6/4/1 -4/4/1
f -2/3/1 -3/3/1 -4/3/1
f -1/3/1 -7/3/1 -5/3/1
f -1/3/1 -3/3/1 -2/3/1
f -1/3/1 -5/3/1 -3/3/1
v -2 0 0.5
v -2 0 -0.5
v -2 1 0.5
v -2 1 -0.5
v -2 13 1.5
v -2 13 -1.5
v -2 14 1.5
v -2 14 -1.5
f -6/5/1 -7/5/1 -8/5/1
f -5/5/1 -7/5/1 -6/5/1
f -2/3/1 -3/3/1 -4/3/1
f -1/3/1 -3/3/1 -2/3/1
v -1 2 1.5
v -1 2 -1.5
v -1 2 -2.5
v -1 2 -3.5
v -1 3 1.5
v -1 3 -1.5
v -1 4 -2.5
v -1 4 -3.5
v -1 8 3.5
v -1 8 2.5
v -1 9 3.5
v -1 9 2.5
f -8/4/1 -11/4/1 -12/4/1
f -7/4/1 -11/4/1 -8/4/1
f -6/3/1 -9/3/1 -10/3/1
f -5/3/1 -9/3/1 -6/3/1
f -2/1/1 -3/1/1 -4/1/1
f -1/1/1 -3/1/1 -2/1/1
v 1 0 0.5
v 1 0 -0.5
v 1 1 1.5
v 1 1 0.5
v 1 1 -0.5
v 1 1 -1.5
v 1 2 1.5
v 1 2 -1.5
v 1 3 -1.5
v 1 3 -2.5
v 1 4 -1.5
v 1 4 -2.5
v 1 8 2.5
v 1 8 1.5
v 1 9 2.5
v 1 9 1.5
f -13/5/1 -15/5/1 -16/5/1
f -12/5/1 -15/5/1 -13/5/1
f -10/4/1 -13/4/1 -14/4/1
f -10/4/1 -11/4/1 -12/4/1
f -10/4/1 -12/4/1 -13/4/1
f -9/4/1 -11/4/1 -10/4/1
f -6/3/1 -7/3/1 -8/3/1
f -5/3/1 -7/3/1 -6/3/1
f -2/4/1 -3/4/1 -4/4/1
f -1/4/1 -3/4/1 -2/4/1
v 2 2 1.5
v 2 2 -1.5
v 2 4 0.5
v 2 4 -0.5
v 2 7 1.5
v 2 7 0.5
v 2 7 -0.5
v 2 7 -1.5
v 2 8 1.5
v 2 8 -0.5
v 2 8 -1.5
v 2 9 1.5
v 2 9 -0.5
v 2 10 1.5
v 2 11 1.5
v 2 12 1.5
v 2 13 1.5
v 2 13 -1.5
f -16/4/1 -17/4/1 -18/4/1
f -15/4/1 -17/4/1 -16/4/1
f -14/4/1 -16/4/1 -18/4/1
f -13/4/1 -16/4/1 -14/4/1
f -12/4/1 -17/4/1 -15/4/1
f -11/4/1 -17/4/1 -12/4/1
f -10/2/1 -13/2/1 -14/2/1
f -10/2/1 -12/2/1 -13/2/1
f -10/2/1 -11/2/1 -12/2/1
f -9/2/1 -11/2/1 -10/2/1
f -8/2/1 -11/2/1 -9/2/1
f -7/4/1 -9/4/1 -10/4/1
f -6/3/1 -8/3/1 -9/3/1
f -6/4/1 -9/4/1 -7/4/1
f -5/3/1 -6/3/1 -7/3/1
f -4/3/1 -6/3/1 -5/3/1
f -3/3/1 -6/3/1 -4/3/1
f -2/3/1 -6/3/1 -3/3/1
f -1/3/1 -8/3/1 -6/3/1
f -1/3/1 -6/3/1 -2/3/1
v 3 4 0.5
v 3 4 -0.5
v 3 7 0.5
v 3 7 -0.5
f -2/3/1 -3/3/1 -4/3/1
f -1/3/1 -3/3/1 -2/3/1
v -3 4 0.5
v -3 4 -0.5
v -3 7 0.5
v -3 7 -0.5
f -4/3/2 -3/3/2 -2/3/2
f -2/3/2 -3/3/2 -1/3/2
v -2 2 1.5
v -2 2 -1.5
v -2 4 0.5
v -2 4 -0.5
v -2 5 1.5
v -2 7 1.5
v -2 7 0.5
v -2 7 -0.5
v -2 7 -1.5
v -2 8 1.5
v -2 8 -0.5
v -2 8 -1.5
v -2 9 1.5
v -2 9 -0.5
v -2 10 1.5
v -2 11 1.5
v -2 12 1.5
v -2 13 1.5
v -2 13 -1.5
f -19/4/2 -18/4/2 -17/4/2
f -17/4/2 -18/4/2 -16/4/2
f -19/4/2 -17/4/2 -15/4/2
f -15/4/2 -17/4/2 -14/4/2
f -14/4/2 -17/4/2 -13/4/2
f -16/4/2 -18/4/2 -12/4/2
f -12/4/2 -18/4/2 -11/4/2
f -14/2/2 -13/2/2 -10/2/2
f -13/2/2 -12/2/2 -10/2/2
f -12/2/2 -11/2/2 -10/2/2
f -10/2/2 -11/2/2 -9/2/2
f -9/2/2 -11/2/2 -8/2/2
f -10/4/2 -9/4/2 -7/4/2
f -9/3/2 -8/3/2 -6/3/2
f -7/4/2 -9/4/2 -6/4/2
f -7/3/2 -6/3/2 -5/3/2
f -5/3/2 -6/3/2 -4/3/2
f -4/3/2 -6/3/2 -3/3/2
f -3/3/2 -6/3/2 -2/3/2
f -6/3/2 -8/3/2 -1/3/2
f -2/3/2 -6/3/2 -1/3/2
v -1 0 0.5
v -1 0 -0.5
v -1 1 1.5
v -1 1 0.5
v -1 1 -0.5
v -1 1 -1.5
v -1 2 1.5
v -1 2 -1.5
v -1 3 -1.5
v -1 3 -2.5
v -1 4 -1.5
v -1 4 -2.5
v -1 8 2.5
v -1 8 1.5
v -1 9 2.5
v -1 9 1.5
f -16/5/2 -15/5/2 -13/5/2
f -13/5/2 -15/5/2 -12/5/2
f -14/4/2 -13/4/2 -10/4/2
f -12/4/2 -11/4/2 -10/4/2
f -13/4/2 -12/4/2 -10/4/2
f -10/4/2 -11/4/2 -9/4/2
f -8/3/2 -7/3/2 -6/3/2
f -6/3/2 -7/3/2 -5/3/2
f -4/4/2 -3/4/2 -2/4/2
f -2/4/2 -3/4/2 -1/4/2
v 1 2 1.5
v 1 2 -1.5
v 1 2 -2.5
v 1 2 -3.5
v 1 3 1.5
v 1 3 -1.5
v 1 4 -2.5
v 1 4 -3.5
v 1 8 3.5
v 1 8 2.5
v 1 9 3.5
v 1 9 2.5
f -12/4/2 -11/4/2 -8/4/2
f -8/4/2 -11/4/2 -7/4/2
f -10/3/2 -9/3/2 -6/3/2
f -6/3/2 -9/3/2 -5/3/2
f -4/1/2 -3/1/2 -2/1/2
f -2/1/2 -3/1/2 -1/1/2
v 2 0 0.5
v 2 0 -0.5
v 2 1 0.5
v 2 1 -0.5
v 2 13 1.5
v 2 13 -1.5
v 2 14 1.5
v 2 14 -1.5
f -8/5/2 -7/5/2 -6/5/2
f -6/5/2 -7/5/2 -5/5/2
f -4/3/2 -3/3/2 -2/3/2
f -2/3/2 -3/3/2 -1/3/2
v 3 1 1.5
v 3 1 -1.5
v 3 2 2.5
v 3 2 1.5
v 3 2 -1.5
v 3 2 -2.5
v 3 4 0.5
v 3 4 -0.5
v 3 7 2.5
v 3 7 0.5
v 3 7 -0.5
v 3 7 -1.5
v 3 7 -2.5
v 3 8 2.5
v 3 8 -0.5
v 3 8 -2.5
v 3 9 1.5
v 3 9 -0.5
v 3 11 2.5
v 3 11 1.5
v 3 13 2.5
v 3 13 -2.5
f -22/4/2 -21/4/2 -19/4/2
f -19/4/2 -21/4/2 -18/4/2
f -20/4/2 -19/4/2 -16/4/2
f -19/4/2 -18/4/2 -16/4/2
f -16/4/2 -18/4/2 -15/4/2
f -20/4/2 -16/4/2 -14/4/2
f -14/4/2 -16/4/2 -13/4/2
f -15/4/2 -18/4/2 -12/4/2
f -18/3/2 -17/3/2 -11/3/2
f -12/4/2 -18/4/2 -11/4/2
f -11/3/2 -17/3/2 -10/3/2
f -13/2/2 -12/2/2 -9/2/2
f -14/2/2 -13/2/2 -9/2/2
f -11/2/2 -10/2/2 -9/2/2
f -12/2/2 -11/2/2 -9/2/2
f -9/2/2 -10/2/2 -8/2/2
f -8/2/2 -10/2/2 -7/2/2
f -9/4/2 -8/4/2 -6/4/2
f -8/3/2 -7/3/2 -5/3/2
f -6/4/2 -8/4/2 -5/4/2
f -9/4/2 -6/4/2 -4/4/2
f -6/3/2 -5/3/2 -3/3/2
f -4/4/2 -6/4/2 -3/4/2
f -4/3/2 -3/3/2 -2/3/2
f -5/3/2 -7/3/2 -1/3/2
f -2/3/2 -3/3/2 -1/3/2
f -3/3/2 -5/3/2 -1/3/2
v 4 4 0.5
v 4 4 -0.5
v 4 7 0.5
v 4 7 -0.5
f -4/3/2 -3/3/2 -2/3/2
f -2/3/2 -3/3/2 -1/3/2
v -1 8 3.5
v -1 9 3.5
v 1 8 3.5
v 1 9 3.5
f -2/1/3 -3/1/3 -4/1/3
f -1/1/3 -3/1/3 -2/1/3
v -3 2 2.5
v -3 7 2.5
v -3 8 2.5
v -3 11 2.5
v -3 13 2.5
v -2 5 2.5
v -2 7 2.5
v -2 10 2.5
v -2 11 2.5
v -2 12 2.5
v -1 5 2.5
v -1 7 2.5
v -1 8 2.5
v -1 9 2.5
v -1 10 2.5
v -1 11 2.5
v 1 8 2.5
v 1 9 2.5
v 1 10 2.5
v 1 11 2.5
v 2 10 2.5
v 2 11 2.5
v 2 12 2.5
v 3 2 2.5
v 3 7 2.5
v 3 8 2.5
v 3 11 2.5
v 3 13 2.5
f -23/4/3 -27/4/3 -28/4/3
f -22/2/3 -26/2/3 -27/2/3
f -22/4/3 -27/4/3 -23/4/3
f -21/4/3 -25/4/3 -26/4/3
f -20/3/3 -24/3/3 -25/3/3
f -20/4/3 -25/4/3 -21/4/3
f -19/3/3 -24/3/3 -20/3/3
f -18/4/3 -23/4/3 -28/4/3
f -18/2/3 -22/2/3 -23/2/3
f -17/2/3 -26/2/3 -22/2/3
f -17/2/3 -22/2/3 -18/2/3
f -16/4/3 -21/4/3 -26/4/3
f -16/2/3 -26/2/3 -17/2/3
f -15/4/3 -21/4/3 -16/4/3
f -14/5/3 -20/5/3 -21/5/3
f -14/4/3 -21/4/3 -15/4/3
f -13/4/3 -19/4/3 -20/4/3
f -13/5/3 -20/5/3 -14/5/3
f -12/2/3 -16/2/3 -17/2/3
f -11/4/3 -14/4/3 -15/4/3
f -11/4/3 -13/4/3 -14/4/3
f -10/4/3 -13/4/3 -11/4/3
f -9/4/3 -19/4/3 -13/4/3
f -9/4/3 -13/4/3 -10/4/3
f -8/4/3 -10/4/3 -11/4/3
f -8/4/3 -11/4/3 -12/4/3
f -8/5/3 -9/5/3 -10/5/3
f -7/4/3 -19/4/3 -9/4/3
f -7/5/3 -9/5/3 -8/5/3
f -6/3/3 -24/3/3 -19/3/3
f -6/4/3 -19/4/3 -7/4/3
f -5/4/3 -17/4/3 -18/4/3
f -5/4/3 -18/4/3 -28/4/3
f -4/2/3 -12/2/3 -17/2/3
f -4/4/3 -17/4/3 -5/4/3
f -3/4/3 -7/4/3 -8/4/3
f -3/2/3 -12/2/3 -4/2/3
f -3/4/3 -8/4/3 -12/4/3
f -2/3/3 -6/3/3 -7/3/3
f -2/4/3 -7/4/3 -3/4/3
f -1/3/3 -24/3/3 -6/3/3
f -1/3/3 -6/3/3 -2/3/3
v -3 1 1.5
v -3 2 1.5
v -2 13 1.5
v -2 14 1.5
v -1 1 1.5
v -1 2 1.5
v 1 1 1.5
v 1 2 1.5
v 2 13 1.5
v 2 14 1.5
v 3 1 1.5
v 3 2 1.5
f -8/4/3 -11/4/3 -12/4/3
f -7/4/3 -11/4/3 -8/4/3
f -4/3/3 -9/3/3 -10/3/3
f -3/3/3 -9/3/3 -4/3/3
f -2/4/3 -5/4/3 -6/4/3
f -1/4/3 -5/4/3 -2/4/3
v -4 4 0.5
v -4 7 0.5
v -3 4 0.5
v -3 7 0.5
v -2 0 0.5
v -2 1 0.5
v -1 0 0.5
v -1 1 0.5
v 1 0 0.5
v 1 1 0.5
v 2 0 0.5
v 2 1 0.5
v 3 4 0.5
v 3 7 0.5
v 4 4 0.5
v 4 7 0.5
f -14/3/3 -15/3/3 -16/3/3
f -13/3/3 -15/3/3 -14/3/3
f -10/5/3 -11/5/3 -12/5/3
f -9/5/3 -11/5/3 -10/5/3
f -6/5/3 -7/5/3 -8/5/3
f -5/5/3 -7/5/3 -6/5/3
f -2/3/3 -3/3/3 -4/3/3
f -1/3/3 -3/3/3 -2/3/3
v -3 4 -0.5
v -3 7 -0.5
v -2 4 -0.5
v -2 7 -0.5
v 2 4 -0.5
v 2 7 -0.5
v 3 4 -0.5
v 3 7 -0.5
f -6/4/3 -7/4/3 -8/4/3
f -5/4/3 -7/4/3 -6/4/3
f -2/4/3 -3/4/3 -4/4/3
f -1/4/3 -3/4/3 -2/4/3
v -2 2 -1.5
v -2 7 -1.5
v -2 8 -1.5
v -2 13 -1.5
v -1 2 -1.5
v -1 3 -1.5
v -1 4 -1.5
v 1 2 -1.5
v 1 3 -1.5
v 1 4 -1.5
v 2 2 -1.5
v 2 7 -1.5
v 2 8 -1.5
v 2 13 -1.5
f -10/3/3 -13/3/3 -14/3/3
f -9/3/3 -13/3/3 -10/3/3
f -8/3/3 -13/3/3 -9/3/3
f -5/3/3 -13/3/3 -8/3/3
f -4/3/3 -6/3/3 -7/3/3
f -4/3/3 -5/3/3 -6/3/3
f -3/2/3 -12/2/3 -13/2/3
f -3/3/3 -5/3/3 -4/3/3
f -3/3/3 -13/3/3 -5/3/3
f -2/3/3 -11/3/3 -12/3/3
f -2/2/3 -12/2/3 -3/2/3
f -1/3/3 -11/3/3 -2/3/3
v -1 3 -2.5
v -1 4 -2.5
v 1 3 -2.5
v 1 4 -2.5
f -2/3/3 -3/3/3 -4/3/3
f -1/3/3 -3/3/3 -2/3/3
v -1 8 2.5
v -1 9 2.5
v 1 8 2.5
v 1 9 2.5
f -4/1/4 -3/1/4 -2/1/4
f -2/1/4 -3/1/4 -1/1/4
v -2 2 1.5
v -2 5 1.5
v -2 7 1.5
v -2 8 1.5
v -2 9 1.5
v -2 10 1.5
v -2 11 1.5
v -2 12 1.5
v -2 13 1.5
v -1 2 1.5
v -1 3 1.5
v -1 5 1.5
v -1 7 1.5
v -1 8 1.5
v -1 9 1.5
v -1 10 1.5
v -1 11 1.5
v 1 2 1.5
v 1 3 1.5
v 1 8 1.5
v 1 9 1.5
v 1 10 1.5
v 1 11 1.5
v 2 2 1.5
v 2 7 1.5
v 2 8 1.5
v 2 9 1.5
v 2 10 1.5
v 2 11 1.5
v 2 12 1.5
v 2 13 1.5
f -31/4/4 -30/4/4 -22/4/4
f -22/4/4 -30/4/4 -21/4/4
f -30/2/4 -29/2/4 -20/2/4
f -21/4/4 -30/4/4 -20/4/4
f -29/2/4 -28/2/4 -20/2/4
f -20/2/4 -28/2/4 -19/2/4
f -28/4/4 -27/4/4 -18/4/4
f -19/2/4 -28/2/4 -18/2/4
f -27/4/4 -26/4/4 -18/4/4
f -18/4/4 -26/4/4 -17/4/4
f -26/5/4 -25/5/4 -16/5/4
f -17/4/4 -26/4/4 -16/4/4
f -25/4/4 -24/4/4 -15/4/4
f -16/5/4 -25/5/4 -15/5/4
f -20/4/4 -19/4/4 -13/4/4
f -21/4/4 -20/4/4 -13/4/4
f -19/2/4 -18/2/4 -12/2/4
f -17/4/4 -16/4/4 -11/4/4
f -16/4/4 -15/4/4 -11/4/4
f -11/4/4 -15/4/4 -10/4/4
f -15/4/4 -24/4/4 -9/4/4
f -10/4/4 -15/4/4 -9/4/4
f -14/4/4 -13/4/4 -8/4/4
f -19/2/4 -12/2/4 -7/2/4
f -8/4/4 -13/4/4 -7/4/4
f -13/4/4 -19/4/4 -7/4/4
f -11/4/4 -10/4/4 -6/4/4
f -7/2/4 -12/2/4 -6/2/4
f -12/4/4 -11/4/4 -6/4/4
f -6/4/4 -10/4/4 -5/4/4
f -10/5/4 -9/5/4 -4/5/4
f -5/4/4 -10/4/4 -4/4/4
f -9/4/4 -24/4/4 -3/4/4
f -4/5/4 -9/5/4 -3/5/4
f -24/3/4 -23/3/4 -2/3/4
f -3/4/4 -24/4/4 -2/4/4
f -2/3/4 -23/3/4 -1/3/4
v -3 4 0.5
v -3 7 0.5
v -2 4 0.5
v -2 7 0.5
v 2 4 0.5
v 2 7 0.5
v 3 4 0.5
v 3 7 0.5
f -8/4/4 -7/4/4 -6/4/4
f -6/4/4 -7/4/4 -5/4/4
f -4/4/4 -3/4/4 -2/4/4
f -2/4/4 -3/4/4 -1/4/4
v -4 4 -0.5
v -4 7 -0.5
v -3 4 -0.5
v -3 7 -0.5
v -2 0 -0.5
v -2 1 -0.5
v -1 0 -0.5
v -1 1 -0.5
v 1 0 -0.5
v 1 1 -0.5
v 2 0 -0.5
v 2 1 -0.5
v 3 4 -0.5
v 3 7 -0.5
v 4 4 -0.5
v 4 7 -0.5
f -16/3/4 -15/3/4 -14/3/4
f -14/3/4 -15/3/4 -13/3/4
f -12/5/4 -11/5/4 -10/5/4
f -10/5/4 -11/5/4 -9/5/4
f -8/5/4 -7/5/4 -6/5/4
f -6/5/4 -7/5/4 -5/5/4
f -4/3/4 -3/3/4 -2/3/4
f -2/3/4 -3/3/4 -1/3/4
v -3 1 -1.5
v -3 2 -1.5
v -2 13 -1.5
v -2 14 -1.5
v -1 1 -1.5
v -1 2 -1.5
v 1 1 -1.5
v 1 2 -1.5
v 2 13 -1.5
v 2 14 -1.5
v 3 1 -1.5
v 3 2 -1.5
f -12/4/4 -11/4/4 -8/4/4
f -8/4/4 -11/4/4 -7/4/4
f -10/3/4 -9/3/4 -4/3/4
f -4/3/4 -9/3/4 -3/3/4
f -6/4/4 -5/4/4 -2/4/4
f -2/4/4 -5/4/4 -1/4/4
v -3 2 -2.5
v -3 7 -2.5
v -3 8 -2.5
v -3 13 -2.5
v -1 2 -2.5
v -1 4 -2.5
v 1 2 -2.5
v 1 4 -2.5
v 3 2 -2.5
v 3 7 -2.5
v 3 8 -2.5
v 3 13 -2.5
f -12/3/4 -11/3/4 -8/3/4
f -8/3/4 -11/3/4 -7/3/4
f -7/3/4 -11/3/4 -5/3/4
f -6/3/4 -5/3/4 -4/3/4
f -11/2/4 -10/2/4 -3/2/4
f -4/3/4 -5/3/4 -3/3/4
f -5/3/4 -11/3/4 -3/3/4
f -10/3/4 -9/3/4 -2/3/4
f -3/2/4 -10/2/4 -2/2/4
f -2/3/4 -9/3/4 -1/3/4
v -1 2 -3.5
v -1 4 -3.5
v 1 2 -3.5
v 1 4 -3.5
f -4/3/4 -3/3/4 -2/3/4
f -2/3/4 -3/3/4 -1/3/4
v -2 0 0.5
v -1 0 0.5
v 1 0 0.5
v 2 0 0.5
v -2 0 -0.5
v -1 0 -0.5
v 1 0 -0.5
v 2 0 -0.5
f -4/5/5 -7/5/5 -8/5/5
f -3/5/5 -7/5/5 -4/5/5
f -2/5/5 -5/5/5 -6/5/5
f -1/5/5 -5/5/5 -2/5/5
v -3 1 1.5
v -1 1 1.5
v 1 1 1.5
v 3 1 1.5
v -2 1 0.5
v -1 1 0.5
v 1 1 0.5
v 2 1 0.5
v -2 1 -0.5
v -1 1 -0.5
v 1 1 -0.5
v 2 1 -0.5
v -3 1 -1.5
v -1 1 -1.5
v 1 1 -1.5
v 3 1 -1.5
f -12/4/5 -15/4/5 -16/4/5
f -11/4/5 -15/4/5 -12/4/5
f -10/4/5 -13/4/5 -14/4/5
f -9/4/5 -13/4/5 -10/4/5
f -8/4/5 -12/4/5 -16/4/5
f -5/4/5 -13/4/5 -9/4/5
f -4/4/5 -7/4/5 -8/4/5
f -4/4/5 -8/4/5 -16/4/5
f -3/4/5 -7/4/5 -4/4/5
f -2/4/5 -5/4/5 -6/4/5
f -1/4/5 -13/4/5 -5/4/5
f -1/4/5 -5/4/5 -2/4/5
v -3 2 2.5
v 3 2 2.5
v -3 2 1.5
v -1 2 1.5
v 1 2 1.5
v 3 2 1.5
v -3 2 -1.5
v -1 2 -1.5
v 1 2 -1.5
v 3 2 -1.5
v -3 2 -2.5
v -1 2 -2.5
v 1 2 -2.5
v 3 2 -2.5
v -1 2 -3.5
v 1 2 -3.5
f -14/4/5 -15/4/5 -16/4/5
f -13/4/5 -15/4/5 -14/4/5
f -12/4/5 -15/4/5 -13/4/5
f -11/4/5 -15/4/5 -12/4/5
f -9/4/5 -12/4/5 -13/4/5
f -8/4/5 -12/4/5 -9/4/5
f -6/3/5 -9/3/5 -10/3/5
f -6/3/5 -7/3/5 -8/3/5
f -6/3/5 -8/3/5 -9/3/5
f -5/3/5 -7/3/5 -6/3/5
f -4/3/5 -7/3/5 -5/3/5
f -3/3/5 -7/3/5 -4/3/5
f -2/3/5 -4/3/5 -5/3/5
f -1/3/5 -4/3/5 -2/3/5
v -4 4 0.5
v -3 4 0.5
v 3 4 0.5
v 4 4 0.5
v -4 4 -0.5
v -3 4 -0.5
v 3 4 -0.5
v 4 4 -0.5
v -1 4 -1.5
v 1 4 -1.5
v -1 4 -2.5
v 1 4 -2.5
f -8/3/5 -11/3/5 -12/3/5
f -7/3/5 -11/3/5 -8/3/5
f -6/3/5 -9/3/5 -10/3/5
f -5/3/5 -9/3/5 -6/3/5
f -2/3/5 -3/3/5 -4/3/5
f -1/3/5 -3/3/5 -2/3/5
v -3 7 0.5
v -2 7 0.5
v 2 7 0.5
v 3 7 0.5
v -3 7 -0.5
v -2 7 -0.5
v 2 7 -0.5
v 3 7 -0.5
f -4/2/5 -7/2/5 -8/2/5
f -3/2/5 -7/2/5 -4/2/5
f -2/2/5 -5/2/5 -6/2/5
f -1/2/5 -5/2/5 -2/2/5
v -1 8 3.5
v 1 8 3.5
v -1 8 2.5
v 1 8 2.5
f -2/1/5 -3/1/5 -4/1/5
f -1/1/5 -3/1/5 -2/1/5
v -1 9 2.5
v 1 9 2.5
v -1 9 1.5
v 1 9 1.5
f -2/4/5 -3/4/5 -4/4/5
f -1/4/5 -3/4/5 -2/4/5
v -2 13 1.5
v 2 13 1.5
v -2 13 -1.5
v 2 13 -1.5
f -2/3/5 -3/3/5 -4/3/5
f -1/3/5 -3/3/5 -2/3/5
v -2 2 1.5
v -1 2 1.5
v 1 2 1.5
v 2 2 1.5
v -2 2 -1.5
v -1 2 -1.5
v 1 2 -1.5
v 2 2 -1.5
f -8/4/6 -7/4/6 -4/4/6
f -4/4/6 -7/4/6 -3/4/6
f -6/4/6 -5/4/6 -2/4/6
f -2/4/6 -5/4/6 -1/4/6
v -1 3 1.5
v 1 3 1.5
v -1 3 -1.5
v 1 3 -1.5
v -1 3 -2.5
v 1 3 -2.5
f -6/4/6 -5/4/6 -4/4/6
f -4/4/6 -5/4/6 -3/4/6
f -4/3/6 -3/3/6 -2/3/6
f -2/3/6 -3/3/6 -1/3/6
v -3 4 0.5
v -2 4 0.5
v 2 4 0.5
v 3 4 0.5
v -3 4 -0.5
v -2 4 -0.5
v 2 4 -0.5
v 3 4 -0.5
v -1 4 -2.5
v 1 4 -2.5
v -1 4 -3.5
v 1 4 -3.5
f -12/4/6 -11/4/6 -8/4/6
f -8/4/6 -11/4/6 -7/4/6
f -10/4/6 -9/4/6 -6/4/6
f -6/4/6 -9/4/6 -5/4/6
f -4/3/6 -3/3/6 -2/3/6
f -2/3/6 -3/3/6 -1/3/6
v -4 7 0.5
v -3 7 0.5
v 3 7 0.5
v 4 7 0.5
v -4 7 -0.5
v -3 7 -0.5
v 3 7 -0.5
v 4 7 -0.5
f -8/3/6 -7/3/6 -4/3/6
f -4/3/6 -7/3/6 -3/3/6
f -6/3/6 -5/3/6 -2/3/6
f -2/3/6 -5/3/6 -1/3/6
v -1 8 2.5
v 1 8 2.5
v -1 8 1.5
v 1 8 1.5
f -4/2/6 -3/2/6 -2/2/6
f -2/2/6 -3/2/6 -1/2/6
v -1 9 3.5
v 1 9 3.5
v -1 9 2.5
v 1 9 2.5
f -4/1/6 -3/1/6 -2/1/6
f -2/1/6 -3/1/6 -1/1/6
v -3 13 2.5
v 3 13 2.5
v -2 13 1.5
v 2 13 1.5
v -2 13 -1.5
v 2 13 -1.5
v -3 13 -2.5
v 3 13 -2.5
f -8/3/6 -7/3/6 -6/3/6
f -6/3/6 -7/3/6 -5/3/6
f -8/3/6 -6/3/6 -4/3/6
f -5/3/6 -7/3/6 -3/3/6
f -8/3/6 -4/3/6 -2/3/6
f -4/3/6 -3/3/6 -2/3/6
f -3/3/6 -7/3/6 -1/3/6
f -2/3/6 -3/3/6 -1/3/6
v -2 14 1.5
v 2 14 1.5
v -2 14 -1.5
v 2 14 -1.5
f -4/3/6 -3/3/6 -2/3/6
f -2/3/6 -3/3/6 -1/3/6
